<svg width="20" height="20" viewBox="0 0 20 20" fill="none" xmlns="http://www.w3.org/2000/svg">
<path fill-rule="evenodd" clip-rule="evenodd" d="M6.25 14.375C6.25 14.2092 6.31585 14.0503 6.43306 13.9331C6.55027 13.8158 6.70924 13.75 6.875 13.75H18.125C18.2908 13.75 18.4497 13.8158 18.5669 13.9331C18.6842 14.0503 18.75 14.2092 18.75 14.375C18.75 14.5408 18.6842 14.6997 18.5669 14.8169C18.4497 14.9342 18.2908 15 18.125 15H6.875C6.70924 15 6.55027 14.9342 6.43306 14.8169C6.31585 14.6997 6.25 14.5408 6.25 14.375ZM6.25 9.375C6.25 9.20924 6.31585 9.05027 6.43306 8.93306C6.55027 8.81585 6.70924 8.75 6.875 8.75H18.125C18.2908 8.75 18.4497 8.81585 18.5669 8.93306C18.6842 9.05027 18.75 9.20924 18.75 9.375C18.75 9.54076 18.6842 9.69973 18.5669 9.81694C18.4497 9.93415 18.2908 10 18.125 10H6.875C6.70924 10 6.55027 9.93415 6.43306 9.81694C6.31585 9.69973 6.25 9.54076 6.25 9.375ZM6.25 4.375C6.25 4.20924 6.31585 4.05027 6.43306 3.93306C6.55027 3.81585 6.70924 3.75 6.875 3.75H18.125C18.2908 3.75 18.4497 3.81585 18.5669 3.93306C18.6842 4.05027 18.75 4.20924 18.75 4.375C18.75 4.54076 18.6842 4.69973 18.5669 4.81694C18.4497 4.93415 18.2908 5 18.125 5H6.875C6.70924 5 6.55027 4.93415 6.43306 4.81694C6.31585 4.69973 6.25 4.54076 6.25 4.375Z" fill="#979FA5"/>
<path d="M2.14125 14.8312V14.2387H2.5C2.77125 14.2387 2.95375 14.0675 2.95375 13.8425C2.95375 13.6112 2.75625 13.455 2.5025 13.455C2.22375 13.455 2.04375 13.645 2.03625 13.8425H1.29875C1.31875 13.2587 1.765 12.8587 2.53125 12.8587C3.26625 12.8562 3.72375 13.2225 3.7275 13.7375C3.72987 13.9141 3.66929 14.0858 3.5566 14.2219C3.44392 14.3579 3.28649 14.4494 3.1125 14.48V14.5212C3.30976 14.5359 3.49376 14.6261 3.62623 14.773C3.7587 14.9199 3.82944 15.1123 3.82375 15.31C3.8275 15.9762 3.19625 16.31 2.51 16.31C1.69 16.31 1.26 15.8475 1.25 15.3175H1.9775C1.9875 15.54 2.21 15.7 2.505 15.7037C2.8225 15.7037 3.035 15.5225 3.0325 15.2662C3.03 15.0225 2.83875 14.8312 2.515 14.8312H2.14H2.14125ZM2.13625 8.95748H1.38125V8.91373C1.38125 8.40373 1.75 7.85873 2.57875 7.85873C3.3075 7.85873 3.77875 8.26623 3.77875 8.80373C3.77875 9.28998 3.4575 9.57498 3.18375 9.86373L2.5125 10.5787V10.6162H3.83V11.25H1.42875V10.7562L2.625 9.51873C2.7975 9.34123 2.99125 9.13873 2.99125 8.88373C2.99125 8.65873 2.8075 8.48373 2.56375 8.48373C2.50748 8.48167 2.45138 8.49114 2.39891 8.51158C2.34644 8.53202 2.29871 8.56298 2.25866 8.60256C2.21861 8.64214 2.18709 8.68951 2.16604 8.74173C2.14498 8.79396 2.13485 8.84994 2.13625 8.90623V8.95748ZM3.205 6.24998H2.41125V3.65498H2.3725L1.625 4.17998V3.47123L2.41125 2.91748H3.205V6.24998Z" fill="#979FA5"/>
</svg>
