<svg width="32" height="32" viewBox="0 0 32 32" fill="none" xmlns="http://www.w3.org/2000/svg">
<path d="M24.0007 17.5727V13.3327C23.9987 11.4435 23.3283 9.61597 22.1081 8.17372C20.8879 6.73146 19.1967 5.76754 17.334 5.45268V3.99935C17.334 3.64573 17.1935 3.30659 16.9435 3.05654C16.6934 2.80649 16.3543 2.66602 16.0007 2.66602C15.647 2.66602 15.3079 2.80649 15.0578 3.05654C14.8078 3.30659 14.6673 3.64573 14.6673 3.99935V5.45268C12.8046 5.76754 11.1133 6.73146 9.89316 8.17372C8.67298 9.61597 8.00257 11.4435 8.00065 13.3327V17.5727C7.22258 17.8478 6.54865 18.3568 6.07124 19.0299C5.59382 19.7031 5.3363 20.5074 5.33398 21.3327V23.9993C5.33398 24.353 5.47446 24.6921 5.72451 24.9422C5.97456 25.1922 6.3137 25.3327 6.66732 25.3327H10.854C11.161 26.4625 11.8313 27.4599 12.7614 28.171C13.6916 28.8821 14.8298 29.2673 16.0007 29.2673C17.1715 29.2673 18.3097 28.8821 19.2399 28.171C20.17 27.4599 20.8403 26.4625 21.1473 25.3327H25.334C25.6876 25.3327 26.0267 25.1922 26.2768 24.9422C26.5268 24.6921 26.6673 24.353 26.6673 23.9993V21.3327C26.665 20.5074 26.4075 19.7031 25.9301 19.0299C25.4527 18.3568 24.7787 17.8478 24.0007 17.5727ZM10.6673 13.3327C10.6673 11.9182 11.2292 10.5616 12.2294 9.56145C13.2296 8.56125 14.5862 7.99935 16.0007 7.99935C17.4151 7.99935 18.7717 8.56125 19.7719 9.56145C20.7721 10.5616 21.334 11.9182 21.334 13.3327V17.3327H10.6673V13.3327ZM16.0007 26.666C15.5353 26.6632 15.0787 26.5387 14.6764 26.3048C14.2741 26.0708 13.94 25.7357 13.7073 25.3327H18.294C18.0613 25.7357 17.7272 26.0708 17.3249 26.3048C16.9226 26.5387 16.466 26.6632 16.0007 26.666ZM24.0007 22.666H8.00065V21.3327C8.00065 20.9791 8.14113 20.6399 8.39118 20.3899C8.64122 20.1398 8.98036 19.9993 9.33398 19.9993H22.6673C23.0209 19.9993 23.3601 20.1398 23.6101 20.3899C23.8602 20.6399 24.0007 20.9791 24.0007 21.3327V22.666Z" fill="#424C5D"/>
</svg>
