<svg width="24" height="24" viewBox="0 0 24 24" fill="none" xmlns="http://www.w3.org/2000/svg">
<path d="M14 11H13V7H15C15.6 7 16 7.4 16 8C16 8.6 16.4 9 17 9C17.6 9 18 8.6 18 8C18 6.3 16.7 5 15 5H13V3C13 2.4 12.6 2 12 2C11.4 2 11 2.4 11 3V5H10C7.8 5 6 6.8 6 9C6 11.2 7.8 13 10 13H11V17H9C8.4 17 8 16.6 8 16C8 15.4 7.6 15 7 15C6.4 15 6 15.4 6 16C6 17.7 7.3 19 9 19H11V21C11 21.6 11.4 22 12 22C12.6 22 13 21.6 13 21V19H14C16.2 19 18 17.2 18 15C18 12.8 16.2 11 14 11ZM11 11H10C8.9 11 8 10.1 8 9C8 7.9 8.9 7 10 7H11V11ZM14 17H13V13H14C15.1 13 16 13.9 16 15C16 16.1 15.1 17 14 17Z" fill="#424C5D"/>
</svg>
