<svg width="20" height="20" viewBox="0 0 20 20" fill="none" xmlns="http://www.w3.org/2000/svg">
<path fill-rule="evenodd" clip-rule="evenodd" d="M6.25006 14.375C6.25006 14.2092 6.31591 14.0503 6.43312 13.933C6.55033 13.8158 6.7093 13.75 6.87506 13.75H18.1251C18.2908 13.75 18.4498 13.8158 18.567 13.933C18.6842 14.0503 18.7501 14.2092 18.7501 14.375C18.7501 14.5407 18.6842 14.6997 18.567 14.8169C18.4498 14.9341 18.2908 15 18.1251 15H6.87506C6.7093 15 6.55033 14.9341 6.43312 14.8169C6.31591 14.6997 6.25006 14.5407 6.25006 14.375ZM6.25006 9.37499C6.25006 9.20923 6.31591 9.05026 6.43312 8.93305C6.55033 8.81584 6.7093 8.74999 6.87506 8.74999H18.1251C18.2908 8.74999 18.4498 8.81584 18.567 8.93305C18.6842 9.05026 18.7501 9.20923 18.7501 9.37499C18.7501 9.54075 18.6842 9.69972 18.567 9.81693C18.4498 9.93414 18.2908 9.99999 18.1251 9.99999H6.87506C6.7093 9.99999 6.55033 9.93414 6.43312 9.81693C6.31591 9.69972 6.25006 9.54075 6.25006 9.37499ZM6.25006 4.37499C6.25006 4.20923 6.31591 4.05026 6.43312 3.93305C6.55033 3.81584 6.7093 3.74999 6.87506 3.74999H18.1251C18.2908 3.74999 18.4498 3.81584 18.567 3.93305C18.6842 4.05026 18.7501 4.20923 18.7501 4.37499C18.7501 4.54075 18.6842 4.69972 18.567 4.81693C18.4498 4.93414 18.2908 4.99999 18.1251 4.99999H6.87506C6.7093 4.99999 6.55033 4.93414 6.43312 4.81693C6.31591 4.69972 6.25006 4.54075 6.25006 4.37499ZM4.81756 2.68249C4.87576 2.74055 4.92194 2.80951 4.95345 2.88545C4.98496 2.96138 5.00117 3.04278 5.00117 3.12499C5.00117 3.2072 4.98496 3.2886 4.95345 3.36453C4.92194 3.44046 4.87576 3.50943 4.81756 3.56749L2.94256 5.44249C2.8845 5.50069 2.81553 5.54687 2.7396 5.57838C2.66367 5.60989 2.58227 5.62611 2.50006 5.62611C2.41785 5.62611 2.33645 5.60989 2.26052 5.57838C2.18458 5.54687 2.11561 5.50069 2.05756 5.44249L1.43256 4.81749C1.37445 4.75938 1.32835 4.69039 1.2969 4.61447C1.26545 4.53854 1.24927 4.45717 1.24927 4.37499C1.24927 4.29281 1.26545 4.21143 1.2969 4.13551C1.32835 4.05958 1.37445 3.9906 1.43256 3.93249C1.49067 3.87438 1.55965 3.82828 1.63558 3.79683C1.7115 3.76539 1.79288 3.7492 1.87506 3.7492C1.95724 3.7492 2.03861 3.76539 2.11454 3.79683C2.19046 3.82828 2.25945 3.87438 2.31756 3.93249L2.50006 4.11624L3.93256 2.68249C3.99061 2.62428 4.05958 2.57811 4.13551 2.5466C4.21145 2.51509 4.29285 2.49887 4.37506 2.49887C4.45727 2.49887 4.53867 2.51509 4.6146 2.5466C4.69053 2.57811 4.7595 2.62428 4.81756 2.68249ZM4.81756 7.68249C4.87576 7.74055 4.92194 7.80952 4.95345 7.88545C4.98496 7.96138 5.00117 8.04278 5.00117 8.12499C5.00117 8.2072 4.98496 8.2886 4.95345 8.36453C4.92194 8.44046 4.87576 8.50943 4.81756 8.56749L2.94256 10.4425C2.8845 10.5007 2.81553 10.5469 2.7396 10.5784C2.66367 10.6099 2.58227 10.6261 2.50006 10.6261C2.41785 10.6261 2.33645 10.6099 2.26052 10.5784C2.18458 10.5469 2.11561 10.5007 2.05756 10.4425L1.43256 9.81749C1.3152 9.70013 1.24927 9.54096 1.24927 9.37499C1.24927 9.20902 1.3152 9.04985 1.43256 8.93249C1.54992 8.81513 1.70909 8.7492 1.87506 8.7492C2.04103 8.7492 2.2002 8.81513 2.31756 8.93249L2.50006 9.11624L3.93256 7.68249C3.99061 7.62428 4.05958 7.57811 4.13551 7.5466C4.21145 7.51509 4.29285 7.49887 4.37506 7.49887C4.45727 7.49887 4.53867 7.51509 4.6146 7.5466C4.69053 7.57811 4.7595 7.62428 4.81756 7.68249ZM4.81756 12.6825C4.87576 12.7405 4.92194 12.8095 4.95345 12.8854C4.98496 12.9614 5.00117 13.0428 5.00117 13.125C5.00117 13.2072 4.98496 13.2886 4.95345 13.3645C4.92194 13.4405 4.87576 13.5094 4.81756 13.5675L2.94256 15.4425C2.8845 15.5007 2.81553 15.5469 2.7396 15.5784C2.66367 15.6099 2.58227 15.6261 2.50006 15.6261C2.41785 15.6261 2.33645 15.6099 2.26052 15.5784C2.18458 15.5469 2.11561 15.5007 2.05756 15.4425L1.43256 14.8175C1.3152 14.7001 1.24927 14.541 1.24927 14.375C1.24927 14.209 1.3152 14.0498 1.43256 13.9325C1.54992 13.8151 1.70909 13.7492 1.87506 13.7492C2.04103 13.7492 2.2002 13.8151 2.31756 13.9325L2.50006 14.1162L3.93256 12.6825C3.99061 12.6243 4.05958 12.5781 4.13551 12.5466C4.21145 12.5151 4.29285 12.4989 4.37506 12.4989C4.45727 12.4989 4.53867 12.5151 4.6146 12.5466C4.69053 12.5781 4.7595 12.6243 4.81756 12.6825Z" fill="#979FA5"/>
</svg>
