<svg width="24" height="24" viewBox="0 0 24 24" fill="none" xmlns="http://www.w3.org/2000/svg">
<path d="M20.85 11.6637L20.5468 11.9973L20.8473 12.3333C21.2573 12.7917 21.4839 13.3851 21.4839 14C21.4839 14.6149 21.2573 15.2083 20.8473 15.6667L20.5492 16L20.8473 16.3333C21.1683 16.6922 21.3789 17.1361 21.4536 17.6118C21.5284 18.0874 21.4643 18.5745 21.2689 19.0145C21.0735 19.4546 20.7552 19.8289 20.3522 20.0924C19.9497 20.3556 19.4797 20.4972 18.9987 20.5H5C4.33696 20.5 3.70107 20.2366 3.23223 19.7678C2.76374 19.2993 2.50039 18.664 2.5 18.0015C2.50404 17.3853 2.7355 16.7923 3.14999 16.3363L3.45324 16.0027L3.15268 15.6667C2.74272 15.2083 2.51607 14.6149 2.51607 14C2.51607 13.3851 2.74272 12.7917 3.15268 12.3333L3.45082 12L3.15268 11.6667C2.74272 11.2083 2.51607 10.6149 2.51607 10C2.51607 9.38506 2.74272 8.79169 3.15268 8.33333L3.45324 7.9973L3.14999 7.66369C2.7355 7.20769 2.50404 6.61469 2.5 5.99851C2.50039 5.33601 2.76374 4.70072 3.23223 4.23223C3.70107 3.76339 4.33696 3.5 5 3.5H10.9993C11.3984 3.50123 11.7914 3.598 12.1455 3.78223C12.4998 3.96656 12.8047 4.23308 13.0348 4.55948C13.265 4.88588 13.4135 5.26266 13.4681 5.65827C13.5227 6.05388 13.4817 6.45681 13.3486 6.83333L13.1129 7.5H13.82H19C19.663 7.5 20.2989 7.76339 20.7678 8.23223C21.2363 8.70075 21.4996 9.33606 21.5 9.9986C21.4959 10.6147 21.2645 11.2077 20.85 11.6637ZM13.3513 18.8258L13.1007 19.5H13.82H18.9964C19.193 19.5026 19.388 19.4646 19.5692 19.3884C19.7479 19.3133 19.9095 19.2027 20.044 19.0632C20.1842 18.9273 20.2966 18.7653 20.3748 18.5863C20.4546 18.4034 20.4972 18.2065 20.5 18.007H20.5V18C20.5 17.6022 20.342 17.2206 20.0607 16.9393C19.7794 16.658 19.3978 16.5 19 16.5H13.82H13.1007L13.3513 17.1742C13.5494 17.7069 13.5494 18.2931 13.3513 18.8258ZM13.3513 14.8258L13.1007 15.5H13.82H18.9963C19.1929 15.5026 19.3879 15.4646 19.5692 15.3884C19.7479 15.3133 19.9095 15.2027 20.044 15.0632C20.1842 14.9273 20.2966 14.7653 20.3748 14.5863C20.4546 14.4034 20.4972 14.2065 20.5 14.007H20.5V14C20.5 13.6022 20.342 13.2206 20.0607 12.9393C19.7794 12.658 19.3978 12.5 19 12.5H13.82H13.1007L13.3513 13.1742C13.5494 13.7069 13.5494 14.2931 13.3513 14.8258ZM13.3513 10.8258L13.1007 11.5H13.82H18.9963C19.1929 11.5026 19.3879 11.4646 19.5692 11.3884C19.7479 11.3133 19.9095 11.2027 20.044 11.0632C20.1842 10.9273 20.2966 10.7653 20.3748 10.5863C20.4546 10.4034 20.4972 10.2065 20.5 10.007L20.5 10.007V10C20.5 9.60218 20.342 9.22064 20.0607 8.93934C19.7794 8.65804 19.3978 8.5 19 8.5H13.82H13.1007L13.3513 9.17422C13.5494 9.70693 13.5494 10.2931 13.3513 10.8258ZM5 19.5H11C11.3978 19.5 11.7794 19.342 12.0607 19.0607C12.342 18.7794 12.5 18.3978 12.5 18C12.5 17.6022 12.342 17.2206 12.0607 16.9393C11.7794 16.658 11.3978 16.5 11 16.5H5C4.60218 16.5 4.22065 16.658 3.93934 16.9393C3.65804 17.2206 3.5 17.6022 3.5 18C3.5 18.3978 3.65804 18.7794 3.93934 19.0607C4.22065 19.342 4.60218 19.5 5 19.5ZM5 15.5H11C11.3978 15.5 11.7794 15.342 12.0607 15.0607C12.342 14.7794 12.5 14.3978 12.5 14C12.5 13.6022 12.342 13.2206 12.0607 12.9393C11.7794 12.658 11.3978 12.5 11 12.5H5C4.60217 12.5 4.22064 12.658 3.93934 12.9393C3.65804 13.2206 3.5 13.6022 3.5 14C3.5 14.3978 3.65804 14.7794 3.93934 15.0607C4.22064 15.342 4.60217 15.5 5 15.5ZM5 11.5H11C11.3978 11.5 11.7794 11.342 12.0607 11.0607C12.342 10.7794 12.5 10.3978 12.5 10C12.5 9.60218 12.342 9.22064 12.0607 8.93934C11.7794 8.65804 11.3978 8.5 11 8.5H5C4.60217 8.5 4.22064 8.65804 3.93934 8.93934C3.65804 9.22064 3.5 9.60218 3.5 10C3.5 10.3978 3.65804 10.7794 3.93934 11.0607C4.22064 11.342 4.60217 11.5 5 11.5ZM5 7.5H11C11.3978 7.5 11.7794 7.34196 12.0607 7.06066C12.342 6.77936 12.5 6.39783 12.5 6C12.5 5.60217 12.342 5.22064 12.0607 4.93934C11.7794 4.65804 11.3978 4.5 11 4.5H5C4.60217 4.5 4.22064 4.65804 3.93934 4.93934C3.65804 5.22064 3.5 5.60217 3.5 6C3.5 6.39783 3.65804 6.77936 3.93934 7.06066C4.22064 7.34196 4.60217 7.5 5 7.5Z" stroke="#0061FF"/>
</svg>
