<svg width="24" height="24" viewBox="0 0 24 24" fill="none" xmlns="http://www.w3.org/2000/svg">
<path d="M17.7449 10.7508C18.3357 11.3415 18.8472 12.0581 19.2369 12.82C19.4255 13.1888 19.2795 13.6407 18.9107 13.8293C18.5419 14.0179 18.09 13.8719 17.9014 13.5031C17.5811 12.8767 17.1608 12.288 16.6843 11.8114C14.1216 9.24875 9.96674 9.24875 7.40409 11.8114C6.90627 12.3092 6.50186 12.869 6.1905 13.4845C6.00354 13.8542 5.55234 14.0022 5.18272 13.8153C4.8131 13.6283 4.66503 13.1771 4.85198 12.8075C5.23479 12.0507 5.73283 11.3613 6.34343 10.7508C9.49187 7.60231 14.5965 7.60231 17.7449 10.7508ZM15.6431 13.8196C16.0907 14.2672 16.4589 14.8169 16.7152 15.4017C16.8814 15.7811 16.7087 16.2235 16.3293 16.3897C15.9499 16.556 15.5076 16.3832 15.3413 16.0038C15.1582 15.586 14.8946 15.1924 14.5824 14.8803C13.1797 13.4775 10.9054 13.4775 9.50266 14.8803C9.19214 15.1908 8.94004 15.5689 8.75546 15.9908C8.58941 16.3703 8.14718 16.5433 7.76771 16.3772C7.38823 16.2112 7.21521 15.769 7.38125 15.3895C7.6387 14.8011 7.99509 14.2665 8.442 13.8196C10.4305 11.8311 13.6546 11.8311 15.6431 13.8196ZM20.4481 8.27886C20.9571 8.78791 21.4378 9.36949 21.8562 9.97574C22.0915 10.3166 22.0059 10.7837 21.665 11.019C21.3241 11.2543 20.857 11.1687 20.6217 10.8278C20.2537 10.2946 19.8308 9.78291 19.3874 9.33952C15.3074 5.25947 8.69231 5.25947 4.61225 9.33952C4.19038 9.7614 3.77196 10.273 3.39022 10.8233C3.15412 11.1636 2.68683 11.2481 2.34649 11.012C2.00615 10.7759 1.92166 10.3086 2.15776 9.96828C2.58792 9.34822 3.06233 8.76812 3.55159 8.27886C8.21743 3.61302 15.7823 3.61302 20.4481 8.27886ZM13.0606 16.4393C13.6465 17.0251 13.6465 17.975 13.0606 18.5608C12.4748 19.1467 11.5249 19.1467 10.9391 18.5608C10.3532 17.975 10.3532 17.0251 10.9391 16.4393C11.5249 15.8534 12.4748 15.8534 13.0606 16.4393Z" fill="white"/>
</svg>
