<svg width="24" height="24" viewBox="0 0 24 24" fill="none" xmlns="http://www.w3.org/2000/svg">
<path d="M21.6411 12.9999C21.4968 12.8806 21.3218 12.8042 21.1362 12.7795C20.9505 12.7547 20.7617 12.7826 20.5911 12.8599C19.5337 13.3438 18.384 13.5928 17.2211 13.5899C15.07 13.5873 13.0071 12.7344 11.4823 11.217C9.95742 9.69967 9.09431 7.64102 9.08111 5.48991C9.08567 4.81574 9.16958 4.14445 9.33111 3.48991C9.36539 3.31545 9.35253 3.135 9.29387 2.96716C9.2352 2.79932 9.13285 2.65016 8.99735 2.53504C8.86186 2.41992 8.69812 2.343 8.52301 2.31222C8.3479 2.28144 8.16775 2.2979 8.00111 2.35991C6.43344 3.06482 5.07068 4.15667 4.04087 5.53289C3.01106 6.90911 2.34799 8.52453 2.11396 10.2274C1.87993 11.9303 2.08262 13.6647 2.70298 15.2677C3.32335 16.8707 4.34102 18.2897 5.66041 19.3914C6.9798 20.4931 8.55759 21.2413 10.2456 21.5657C11.9335 21.8902 13.6763 21.7802 15.3101 21.2461C16.9439 20.7121 18.4151 19.7715 19.5855 18.5127C20.7559 17.2539 21.5872 15.7182 22.0011 14.0499C22.0515 13.8589 22.0442 13.6572 21.9802 13.4704C21.9161 13.2835 21.7981 13.1198 21.6411 12.9999ZM12.1411 19.6899C10.4629 19.6781 8.82931 19.1478 7.4641 18.1716C6.0989 17.1955 5.06878 15.8212 4.51479 14.237C3.96081 12.6528 3.91005 10.9361 4.36945 9.32191C4.82886 7.70773 5.77597 6.27501 7.08111 5.21991V5.48991C7.08376 8.17839 8.15293 10.756 10.054 12.657C11.955 14.5581 14.5326 15.6273 17.2211 15.6299C17.927 15.6325 18.6311 15.5587 19.3211 15.4099C18.631 16.7154 17.5976 17.8077 16.3323 18.5691C15.067 19.3304 13.6178 19.7317 12.1411 19.7299V19.6899Z" fill="#262B35"/>
</svg>
