<svg width="32" height="32" viewBox="0 0 32 32" fill="none" xmlns="http://www.w3.org/2000/svg">
<path d="M17.6 22.4C17.6 22.8243 17.4315 23.2313 17.1314 23.5314C16.8314 23.8314 16.4244 24 16 24C15.5757 24 15.1687 23.8314 14.8687 23.5314C14.5686 23.2313 14.4 22.8243 14.4 22.4H17.6ZM16 8C16.2122 8 16.4157 8.08429 16.5657 8.23431C16.7158 8.38434 16.8 8.58783 16.8 8.8V9.664C19.072 10.048 20.8 12.024 20.8 14.4V19.2L23.2 21.6H8.80005L11.2 19.2V14.4C11.2 12.024 12.928 10.048 15.2 9.664V8.8C15.2 8.58783 15.2843 8.38434 15.4344 8.23431C15.5844 8.08429 15.7879 8 16 8Z" fill="white"/>
</svg>
