<svg width="24" height="24" viewBox="0 0 24 24" fill="none" xmlns="http://www.w3.org/2000/svg">
<path d="M20.6403 15.7711C21.1913 15.1423 21.4966 14.3355 21.5 13.4993C21.5 12.5711 21.1313 11.6809 20.4749 11.0245C19.8185 10.3681 18.9283 9.99935 18 9.99935C17.0717 9.99935 16.1815 10.3681 15.5251 11.0245C14.8687 11.6809 14.5 12.5711 14.5 13.4993C14.5034 14.3355 14.8087 15.1423 15.3597 15.7711C14.6397 16.2175 14.0453 16.84 13.6324 17.5797C13.2196 18.3195 13.0019 19.1522 13 19.9993C13 20.2646 13.1054 20.5189 13.2929 20.7065C13.4804 20.894 13.7348 20.9993 14 20.9993C14.2652 20.9993 14.5196 20.894 14.7071 20.7065C14.8946 20.5189 15 20.2646 15 19.9993C15 19.2037 15.3161 18.4406 15.8787 17.878C16.4413 17.3154 17.2044 16.9993 18 16.9993C18.7956 16.9993 19.5587 17.3154 20.1213 17.878C20.6839 18.4406 21 19.2037 21 19.9993C21 20.2646 21.1054 20.5189 21.2929 20.7065C21.4804 20.894 21.7348 20.9993 22 20.9993C22.2652 20.9993 22.5196 20.894 22.7071 20.7065C22.8946 20.5189 23 20.2646 23 19.9993C22.9981 19.1522 22.7804 18.3195 22.3676 17.5797C21.9547 16.84 21.3603 16.2175 20.6403 15.7711ZM18 14.9993C17.7033 14.9993 17.4133 14.9114 17.1666 14.7466C16.92 14.5817 16.7277 14.3475 16.6142 14.0734C16.5007 13.7993 16.4709 13.4977 16.5288 13.2067C16.5867 12.9157 16.7296 12.6485 16.9393 12.4387C17.1491 12.2289 17.4164 12.086 17.7074 12.0282C17.9983 11.9703 18.2999 12 18.574 12.1135C18.8481 12.2271 19.0824 12.4193 19.2472 12.666C19.412 12.9127 19.5 13.2027 19.5 13.4993C19.4996 13.897 19.3414 14.2783 19.0602 14.5595C18.779 14.8407 18.3977 14.9989 18 14.9993ZM6.79327 7.70669L8.793 9.70635C8.98109 9.89106 9.23451 9.99402 9.49812 9.99282C9.76174 9.99163 10.0142 9.88638 10.2006 9.69997C10.387 9.51357 10.4923 9.26109 10.4935 8.99747C10.4947 8.73385 10.3917 8.48043 10.207 8.29235L9.91406 7.99935H14.0859L13.7929 8.29235C13.6991 8.38498 13.6246 8.49526 13.5736 8.61682C13.5225 8.73838 13.496 8.86883 13.4956 9.00067C13.4952 9.13251 13.5209 9.26312 13.5711 9.385C13.6214 9.50688 13.6953 9.61762 13.7885 9.71084C13.8817 9.80406 13.9925 9.87792 14.1144 9.92818C14.2362 9.97844 14.3669 10.0041 14.4987 10.0037C14.6305 10.0033 14.761 9.97678 14.8825 9.92575C15.0041 9.87472 15.1144 9.80016 15.207 9.70635L17.2067 7.70666C17.3935 7.51864 17.4984 7.26436 17.4984 6.99932C17.4984 6.73427 17.3935 6.47999 17.2067 6.29198L15.207 4.29235C15.0189 4.10764 14.7655 4.00468 14.5019 4.00587C14.2383 4.00706 13.9858 4.11231 13.7994 4.29872C13.613 4.48513 13.5077 4.73761 13.5065 5.00122C13.5053 5.26484 13.6083 5.51826 13.793 5.70635L14.086 5.99935H9.91406L10.2071 5.70635C10.3926 5.51843 10.4963 5.26472 10.4955 5.00063C10.4946 4.73653 10.3893 4.48349 10.2026 4.29675C10.0158 4.11001 9.7628 4.00474 9.49871 4.00391C9.23461 4.00309 8.98091 4.10678 8.793 4.29235L6.79327 6.29201C6.60645 6.48002 6.5016 6.7343 6.5016 6.99935C6.5016 7.26439 6.60645 7.51867 6.79327 7.70669ZM8.64027 15.7711C9.19131 15.1423 9.49662 14.3355 9.5 13.4993C9.5 12.5711 9.13125 11.6809 8.47487 11.0245C7.8185 10.3681 6.92826 9.99935 6 9.99935C5.07174 9.99935 4.1815 10.3681 3.52513 11.0245C2.86875 11.6809 2.5 12.5711 2.5 13.4993C2.50338 14.3355 2.8087 15.1423 3.35974 15.7711C2.63973 16.2175 2.04527 16.84 1.63242 17.5797C1.21957 18.3195 1.00192 19.1522 1 19.9993C1 20.2646 1.10536 20.5189 1.29289 20.7065C1.48043 20.894 1.73478 20.9993 2 20.9993C2.26522 20.9993 2.51957 20.894 2.70711 20.7065C2.89464 20.5189 3 20.2646 3 19.9993C3 19.2037 3.31607 18.4406 3.87868 17.878C4.44129 17.3154 5.20435 16.9993 6 16.9993C6.79565 16.9993 7.55871 17.3154 8.12132 17.878C8.68393 18.4406 9 19.2037 9 19.9993C9 20.2646 9.10536 20.5189 9.29289 20.7065C9.48043 20.894 9.73478 20.9993 10 20.9993C10.2652 20.9993 10.5196 20.894 10.7071 20.7065C10.8946 20.5189 11 20.2646 11 19.9993C10.9981 19.1522 10.7804 18.3195 10.3676 17.5797C9.95473 16.84 9.36027 16.2175 8.64026 15.7711H8.64027ZM6 14.9993C5.70333 14.9993 5.41332 14.9114 5.16664 14.7466C4.91997 14.5817 4.72771 14.3475 4.61418 14.0734C4.50065 13.7993 4.47094 13.4977 4.52882 13.2067C4.5867 12.9157 4.72956 12.6485 4.93934 12.4387C5.14912 12.2289 5.41639 12.086 5.70736 12.0282C5.99834 11.9703 6.29994 12 6.57403 12.1135C6.84811 12.2271 7.08238 12.4193 7.2472 12.666C7.41203 12.9127 7.5 13.2027 7.5 13.4993C7.49957 13.897 7.34139 14.2783 7.06018 14.5595C6.77897 14.8407 6.39769 14.9989 6 14.9993Z" fill="#424C5D"/>
</svg>
