<svg width="28" height="28" viewBox="0 0 28 28" fill="none" xmlns="http://www.w3.org/2000/svg">
<path d="M3.5002 20.9999H9.3335C10.0335 20.9999 10.5002 20.5333 10.5002 19.8333C10.5002 19.1333 10.0335 18.6666 9.3335 18.6666H6.30018L12.8335 12.1333L16.6835 15.9833C17.1501 16.45 17.8501 16.45 18.3168 15.9833L25.3168 8.98333C25.7834 8.51667 25.7834 7.81667 25.3168 7.35001C24.8501 6.88334 24.1501 6.88334 23.6834 7.35001L17.5001 13.5333L13.6501 9.68333C13.1835 9.21666 12.4835 9.21666 12.0168 9.68333L4.66686 17.0333V14C4.66686 13.3 4.20019 12.8333 3.5002 12.8333C2.8002 12.8333 2.33354 13.3 2.33354 14V19.8333C2.33354 20.5333 2.8002 20.9999 3.5002 20.9999Z" fill="#D13329"/>
</svg>
