<svg width="40" height="40" viewBox="0 0 40 40" fill="none" xmlns="http://www.w3.org/2000/svg">
<path d="M31.1839 12.0168C31.029 11.8606 30.8446 11.7366 30.6415 11.652C30.4384 11.5674 30.2206 11.5238 30.0006 11.5238C29.7805 11.5238 29.5627 11.5674 29.3596 11.652C29.1565 11.7366 28.9722 11.8606 28.8172 12.0168L16.4006 24.4502L11.1839 19.2168C11.023 19.0614 10.8331 18.9393 10.625 18.8572C10.4169 18.7752 10.1947 18.735 9.9711 18.7389C9.74747 18.7428 9.52679 18.7906 9.32166 18.8798C9.11653 18.969 8.93096 19.0976 8.77557 19.2585C8.62017 19.4194 8.49798 19.6093 8.41597 19.8174C8.33397 20.0255 8.29375 20.2477 8.29762 20.4713C8.30149 20.6949 8.34937 20.9156 8.43852 21.1207C8.52768 21.3259 8.65636 21.5114 8.81723 21.6668L15.2172 28.0668C15.3722 28.2231 15.5565 28.347 15.7596 28.4317C15.9627 28.5163 16.1805 28.5598 16.4006 28.5598C16.6206 28.5598 16.8384 28.5163 17.0415 28.4317C17.2446 28.347 17.429 28.2231 17.5839 28.0668L31.1839 14.4668C31.3531 14.3108 31.4881 14.1213 31.5804 13.9105C31.6728 13.6997 31.7205 13.472 31.7205 13.2418C31.7205 13.0117 31.6728 12.784 31.5804 12.5732C31.4881 12.3623 31.3531 12.1729 31.1839 12.0168Z" fill="white"/>
</svg>
