<svg width="24" height="24" viewBox="0 0 24 24" fill="none" xmlns="http://www.w3.org/2000/svg">
<path d="M12.0008 2C10.6876 2 9.38726 2.25866 8.17401 2.7612C6.96075 3.26375 5.85836 4.00035 4.92977 4.92893C3.05441 6.8043 2.00084 9.34784 2.00084 12C1.9921 14.3091 2.79164 16.5485 4.26084 18.33L2.26084 20.33C2.12208 20.4706 2.02809 20.6492 1.99071 20.8432C1.95334 21.0372 1.97426 21.2379 2.05084 21.42C2.1339 21.5999 2.26855 21.7511 2.43769 21.8544C2.60683 21.9577 2.80284 22.0083 3.00084 22H12.0008C14.653 22 17.1965 20.9464 19.0719 19.0711C20.9473 17.1957 22.0008 14.6522 22.0008 12C22.0008 9.34784 20.9473 6.8043 19.0719 4.92893C17.1965 3.05357 14.653 2 12.0008 2ZM12.0008 20H5.41084L6.34084 19.07C6.52709 18.8826 6.63164 18.6292 6.63164 18.365C6.63164 18.1008 6.52709 17.8474 6.34084 17.66C5.03143 16.352 4.21602 14.6305 4.03353 12.7888C3.85105 10.947 4.31279 9.09901 5.34007 7.55952C6.36735 6.02004 7.89663 4.88436 9.66736 4.34597C11.4381 3.80759 13.3407 3.8998 15.0511 4.60691C16.7614 5.31402 18.1737 6.59227 19.0473 8.22389C19.9209 9.85551 20.2017 11.7395 19.842 13.555C19.4822 15.3705 18.5042 17.005 17.0744 18.1802C15.6446 19.3554 13.8516 19.9985 12.0008 20ZM17.0008 11H7.00084C6.73563 11 6.48127 11.1054 6.29374 11.2929C6.1062 11.4804 6.00084 11.7348 6.00084 12C6.00084 12.2652 6.1062 12.5196 6.29374 12.7071C6.48127 12.8946 6.73563 13 7.00084 13H17.0008C17.2661 13 17.5204 12.8946 17.708 12.7071C17.8955 12.5196 18.0008 12.2652 18.0008 12C18.0008 11.7348 17.8955 11.4804 17.708 11.2929C17.5204 11.1054 17.2661 11 17.0008 11ZM15.0008 15H9.00084C8.73563 15 8.48127 15.1054 8.29374 15.2929C8.1062 15.4804 8.00084 15.7348 8.00084 16C8.00084 16.2652 8.1062 16.5196 8.29374 16.7071C8.48127 16.8946 8.73563 17 9.00084 17H15.0008C15.2661 17 15.5204 16.8946 15.7079 16.7071C15.8955 16.5196 16.0008 16.2652 16.0008 16C16.0008 15.7348 15.8955 15.4804 15.7079 15.2929C15.5204 15.1054 15.2661 15 15.0008 15ZM9.00084 9H15.0008C15.2661 9 15.5204 8.89464 15.7079 8.70711C15.8955 8.51957 16.0008 8.26522 16.0008 8C16.0008 7.73478 15.8955 7.48043 15.7079 7.29289C15.5204 7.10536 15.2661 7 15.0008 7H9.00084C8.73563 7 8.48127 7.10536 8.29374 7.29289C8.1062 7.48043 8.00084 7.73478 8.00084 8C8.00084 8.26522 8.1062 8.51957 8.29374 8.70711C8.48127 8.89464 8.73563 9 9.00084 9Z" fill="#424C5D"/>
</svg>
