<svg width="24" height="24" viewBox="0 0 24 24" fill="none" xmlns="http://www.w3.org/2000/svg">
<path fill-rule="evenodd" clip-rule="evenodd" d="M6 2C6.55228 2 7 2.4368 7 2.97561V5.70387L9.57711 4.53055C9.88682 4.38955 10.2489 4.41262 10.5372 4.59174C10.8255 4.77085 11 5.0812 11 5.41463V9.31707H13V3.46341C13 2.9246 13.4477 2.4878 14 2.4878H19C19.5523 2.4878 20 2.9246 20 3.46341V20.0488H21C21.5523 20.0488 22 20.4856 22 21.0244C22 21.5632 21.5523 22 21 22H3C2.44772 22 2 21.5632 2 21.0244C2 20.4856 2.44772 20.0488 3 20.0488H4V7.69106C4 7.31201 4.22504 6.96727 4.57711 6.80698L5 6.61444V2.97561C5 2.4368 5.44772 2 6 2ZM18 20.0488V4.43902H15V9.31707C15.5523 9.31707 16 9.75387 16 10.2927V20.0488H18ZM14 11.2683H10V20.0488H14V11.2683ZM8 20.0488V10.2927C8 9.75387 8.44772 9.31707 9 9.31707V6.94653L6 8.31239V20.0488H8Z" fill="#424C5D"/>
</svg>
