<svg width="10" height="13" viewBox="0 0 10 13" fill="none" xmlns="http://www.w3.org/2000/svg">
<path d="M5.6139 12.6804C8.32122 12.6804 10.0001 11.2831 10.0001 9.0514C10.0001 7.3725 8.73516 6.11654 7.01255 5.98413V5.91343C7.67224 5.8141 8.27472 5.48228 8.71128 4.97783C9.14784 4.47338 9.38975 3.82952 9.39335 3.1624C9.39335 1.22125 7.89957 0 5.51877 0H0V12.6804H5.6139ZM2.65461 1.97714H4.83487C6.07283 1.97714 6.78501 2.55692 6.78501 3.57634C6.78501 4.64847 5.97642 5.27324 4.56105 5.27324H2.65461V1.97586V1.97714ZM2.65461 10.7033V7.02155H4.87858C6.44306 7.02155 7.29537 7.65403 7.29537 8.84057C7.29537 10.0528 6.46877 10.7033 4.94028 10.7033H2.65333H2.65461Z" fill="black"/>
</svg>
