<svg width="24" height="24" viewBox="0 0 24 24" fill="none" xmlns="http://www.w3.org/2000/svg">
<path d="M12 20.5H12.0006C14.254 20.4974 16.4143 19.6011 18.0077 18.0077C19.6011 16.4143 20.4974 14.254 20.5 12.0006V12C20.5 10.3189 20.0015 8.67547 19.0675 7.27765C18.1335 5.87984 16.806 4.79037 15.2528 4.14702C13.6996 3.50368 11.9906 3.33535 10.3417 3.66333C8.6929 3.9913 7.17834 4.80085 5.9896 5.98959C4.80085 7.17834 3.9913 8.69289 3.66333 10.3417C3.33536 11.9906 3.50368 13.6996 4.14703 15.2528C4.79037 16.806 5.87984 18.1335 7.27766 19.0675C8.67548 20.0015 10.3189 20.5 12 20.5ZM11.9999 6.5H12.0001C12.0658 6.49998 12.1308 6.5129 12.1914 6.53802C12.2521 6.56313 12.3072 6.59995 12.3536 6.64637C12.4001 6.69279 12.4369 6.7479 12.462 6.80856C12.4871 6.86921 12.5 6.93422 12.5 6.99987V7V11.9996C12.4999 12.0823 12.4796 12.1637 12.4408 12.2367C12.4407 12.2368 12.4406 12.2369 12.4406 12.237L10.9411 15.0348L10.9411 15.035C10.8784 15.152 10.7719 15.2393 10.6449 15.2777C10.5179 15.3161 10.3808 15.3025 10.2639 15.2399C10.1469 15.1772 10.0596 15.0707 10.0211 14.9437C9.98272 14.8167 9.99632 14.6796 10.059 14.5627L11.4407 11.9852L11.5 11.8746V11.749V7V6.99987C11.5 6.93422 11.5129 6.86921 11.538 6.80856C11.5631 6.7479 11.6 6.69279 11.6464 6.64637C11.6928 6.59995 11.7479 6.56313 11.8086 6.53802C11.8692 6.5129 11.9342 6.49998 11.9999 6.5ZM6.72209 4.10104C8.28428 3.05722 10.1209 2.50006 11.9997 2.5C14.5184 2.50296 16.9332 3.50482 18.7142 5.28584C20.4952 7.06691 21.4971 9.48175 21.5 12.0006C21.4999 13.8793 20.9427 15.7158 19.899 17.2779C18.8551 18.8402 17.3714 20.0578 15.6355 20.7769C13.8996 21.4959 11.9895 21.684 10.1466 21.3175C8.30383 20.9509 6.61109 20.0461 5.28249 18.7175C3.95389 17.3889 3.0491 15.6962 2.68254 13.8534C2.31598 12.0105 2.50412 10.1004 3.22315 8.36451C3.94218 6.62861 5.15982 5.14491 6.72209 4.10104Z" fill="#0061FF" stroke="#0061FF"/>
</svg>
