<svg width="28" height="28" viewBox="0 0 28 28" fill="none" xmlns="http://www.w3.org/2000/svg">
<path d="M24.4998 6.99994H18.6665C17.9665 6.99994 17.4998 7.4666 17.4998 8.1666C17.4998 8.86659 17.9665 9.33326 18.6665 9.33326H21.6998L15.1665 15.8666L11.3165 12.0166C10.8499 11.5499 10.1499 11.5499 9.68321 12.0166L2.68325 19.0165C2.21658 19.4832 2.21658 20.1832 2.68325 20.6499C3.14991 21.1165 3.84991 21.1165 4.31657 20.6499L10.4999 14.4666L14.3499 18.3165C14.8165 18.7832 15.5165 18.7832 15.9832 18.3165L23.3331 10.9666V13.9999C23.3331 14.6999 23.7998 15.1666 24.4998 15.1666C25.1998 15.1666 25.6665 14.6999 25.6665 13.9999V8.1666C25.6665 7.4666 25.1998 6.99994 24.4998 6.99994Z" fill="#359766"/>
</svg>
