<svg width="20" height="20" viewBox="0 0 20 20" fill="none" xmlns="http://www.w3.org/2000/svg">
<path d="M18.092 16.9083L15.0003 13.8416C16.2004 12.3453 16.7815 10.446 16.6243 8.53434C16.4671 6.62267 15.5833 4.84391 14.1549 3.56379C12.7264 2.28368 10.8618 1.59951 8.94439 1.65198C7.02699 1.70445 5.20255 2.48956 3.84624 3.84587C2.48992 5.20219 1.70481 7.02662 1.65235 8.94402C1.59988 10.8614 2.28404 12.7261 3.56416 14.1545C4.84427 15.583 6.62304 16.4667 8.5347 16.6239C10.4464 16.7812 12.3456 16.2 13.842 14.9999L16.9086 18.0666C16.9861 18.1447 17.0783 18.2067 17.1798 18.249C17.2814 18.2913 17.3903 18.3131 17.5003 18.3131C17.6103 18.3131 17.7192 18.2913 17.8208 18.249C17.9223 18.2067 18.0145 18.1447 18.092 18.0666C18.2422 17.9112 18.3261 17.7035 18.3261 17.4874C18.3261 17.2713 18.2422 17.0636 18.092 16.9083ZM9.16695 14.9999C8.01323 14.9999 6.88541 14.6578 5.92613 14.0168C4.96684 13.3759 4.21917 12.4648 3.77766 11.3989C3.33614 10.333 3.22063 9.16012 3.44571 8.02856C3.67079 6.89701 4.22636 5.8576 5.04216 5.0418C5.85797 4.22599 6.89737 3.67042 8.02893 3.44534C9.16048 3.22026 10.3334 3.33578 11.3993 3.77729C12.4652 4.2188 13.3762 4.96647 14.0172 5.92576C14.6582 6.88505 15.0003 8.01286 15.0003 9.16659C15.0003 10.7137 14.3857 12.1974 13.2917 13.2914C12.1978 14.3853 10.7141 14.9999 9.16695 14.9999Z" fill="#4D90FF"/>
</svg>
