<svg width="20" height="20" viewBox="0 0 20 20" fill="none" xmlns="http://www.w3.org/2000/svg">
<path d="M10.6588 16.455C7.96759 16.455 6.17259 15.0712 6.02759 12.9425H7.56509C7.74509 14.2675 8.97634 15.0712 10.7451 15.0712C12.4201 15.0712 13.6326 14.19 13.6326 12.9775C13.6326 11.9437 12.9488 11.26 11.2401 10.8837L10.0576 10.625H14.3701C14.9551 11.1712 15.2138 11.8675 15.2138 12.7462C15.2138 15.0287 13.4188 16.455 10.6588 16.455ZM8.25259 8.125H6.45884C6.37386 7.81557 6.33221 7.49586 6.33509 7.175C6.33509 5.14125 8.13009 3.715 10.6851 3.715C13.1463 3.715 14.9226 5.18375 14.9913 7.2775H13.4538C13.3163 5.9275 12.2488 5.09875 10.6413 5.09875C9.10384 5.09875 7.91634 5.85125 7.91634 7.1075C7.91634 7.495 8.02009 7.83375 8.25384 8.125H8.25259Z" fill="#979FA5"/>
<path fill-rule="evenodd" clip-rule="evenodd" d="M18.75 10.625H1.25V9.375H18.75V10.625Z" fill="#979FA5"/>
</svg>
