<svg width="24" height="24" viewBox="0 0 24 24" fill="none" xmlns="http://www.w3.org/2000/svg">
<path d="M20.6403 15.7716C21.1913 15.1427 21.4966 14.336 21.5 13.4998C21.5 12.5716 21.1313 11.6813 20.4749 11.025C19.8185 10.3686 18.9283 9.99984 18 9.99984C17.0717 9.99984 16.1815 10.3686 15.5251 11.025C14.8687 11.6813 14.5 12.5716 14.5 13.4998C14.5034 14.336 14.8087 15.1427 15.3597 15.7716C14.6397 16.218 14.0453 16.8404 13.6324 17.5802C13.2196 18.32 13.0019 19.1527 13 19.9998C13 20.2651 13.1054 20.5194 13.2929 20.7069C13.4804 20.8945 13.7348 20.9998 14 20.9998C14.2652 20.9998 14.5196 20.8945 14.7071 20.7069C14.8946 20.5194 15 20.2651 15 19.9998C15 19.2042 15.3161 18.4411 15.8787 17.8785C16.4413 17.3159 17.2044 16.9998 18 16.9998C18.7956 16.9998 19.5587 17.3159 20.1213 17.8785C20.6839 18.4411 21 19.2042 21 19.9998C21 20.2651 21.1054 20.5194 21.2929 20.7069C21.4804 20.8945 21.7348 20.9998 22 20.9998C22.2652 20.9998 22.5196 20.8945 22.7071 20.7069C22.8946 20.5194 23 20.2651 23 19.9998C22.9981 19.1527 22.7804 18.32 22.3676 17.5802C21.9547 16.8404 21.3603 16.218 20.6403 15.7716ZM18 14.9998C17.7033 14.9998 17.4133 14.9119 17.1666 14.747C16.92 14.5822 16.7277 14.3479 16.6142 14.0739C16.5007 13.7998 16.4709 13.4982 16.5288 13.2072C16.5867 12.9162 16.7296 12.649 16.9393 12.4392C17.1491 12.2294 17.4164 12.0865 17.7074 12.0287C17.9983 11.9708 18.2999 12.0005 18.574 12.114C18.8481 12.2275 19.0824 12.4198 19.2472 12.6665C19.412 12.9132 19.5 13.2032 19.5 13.4998C19.4996 13.8975 19.3414 14.2788 19.0602 14.56C18.779 14.8412 18.3977 14.9994 18 14.9998ZM6.79327 7.70718L8.793 9.70683C8.98109 9.89155 9.23451 9.9945 9.49812 9.99331C9.76174 9.99212 10.0142 9.88687 10.2006 9.70046C10.387 9.51405 10.4923 9.26158 10.4935 8.99796C10.4947 8.73434 10.3917 8.48092 10.207 8.29284L9.91406 7.99984H14.0859L13.7929 8.29284C13.6991 8.38547 13.6246 8.49574 13.5736 8.61731C13.5225 8.73887 13.496 8.86932 13.4956 9.00116C13.4952 9.133 13.5209 9.26361 13.5711 9.38549C13.6214 9.50737 13.6953 9.61811 13.7885 9.71133C13.8817 9.80455 13.9925 9.87841 14.1144 9.92867C14.2362 9.97893 14.3669 10.0046 14.4987 10.0042C14.6305 10.0038 14.761 9.97727 14.8825 9.92624C15.0041 9.87521 15.1144 9.80064 15.207 9.70683L17.2067 7.70715C17.3935 7.51913 17.4984 7.26485 17.4984 6.99981C17.4984 6.73476 17.3935 6.48048 17.2067 6.29247L15.207 4.29284C15.0189 4.10812 14.7655 4.00517 14.5019 4.00636C14.2383 4.00755 13.9858 4.1128 13.7994 4.29921C13.613 4.48562 13.5077 4.73809 13.5065 5.00171C13.5053 5.26533 13.6083 5.51875 13.793 5.70683L14.086 5.99984H9.91406L10.2071 5.70683C10.3926 5.51891 10.4963 5.26521 10.4955 5.00112C10.4946 4.73702 10.3893 4.48398 10.2026 4.29724C10.0158 4.1105 9.7628 4.00522 9.49871 4.0044C9.23461 4.00357 8.98091 4.10727 8.793 4.29284L6.79327 6.2925C6.60645 6.48051 6.5016 6.73479 6.5016 6.99984C6.5016 7.26488 6.60645 7.51916 6.79327 7.70718ZM8.64027 15.7716C9.19131 15.1427 9.49662 14.336 9.5 13.4998C9.5 12.5716 9.13125 11.6813 8.47487 11.025C7.8185 10.3686 6.92826 9.99984 6 9.99984C5.07174 9.99984 4.1815 10.3686 3.52513 11.025C2.86875 11.6813 2.5 12.5716 2.5 13.4998C2.50338 14.336 2.8087 15.1427 3.35974 15.7716C2.63973 16.218 2.04527 16.8404 1.63242 17.5802C1.21957 18.32 1.00192 19.1527 1 19.9998C1 20.2651 1.10536 20.5194 1.29289 20.7069C1.48043 20.8945 1.73478 20.9998 2 20.9998C2.26522 20.9998 2.51957 20.8945 2.70711 20.7069C2.89464 20.5194 3 20.2651 3 19.9998C3 19.2042 3.31607 18.4411 3.87868 17.8785C4.44129 17.3159 5.20435 16.9998 6 16.9998C6.79565 16.9998 7.55871 17.3159 8.12132 17.8785C8.68393 18.4411 9 19.2042 9 19.9998C9 20.2651 9.10536 20.5194 9.29289 20.7069C9.48043 20.8945 9.73478 20.9998 10 20.9998C10.2652 20.9998 10.5196 20.8945 10.7071 20.7069C10.8946 20.5194 11 20.2651 11 19.9998C10.9981 19.1527 10.7804 18.32 10.3676 17.5802C9.95473 16.8404 9.36027 16.218 8.64026 15.7716H8.64027ZM6 14.9998C5.70333 14.9998 5.41332 14.9119 5.16664 14.747C4.91997 14.5822 4.72771 14.3479 4.61418 14.0739C4.50065 13.7998 4.47094 13.4982 4.52882 13.2072C4.5867 12.9162 4.72956 12.649 4.93934 12.4392C5.14912 12.2294 5.41639 12.0865 5.70736 12.0287C5.99834 11.9708 6.29994 12.0005 6.57403 12.114C6.84811 12.2275 7.08238 12.4198 7.2472 12.6665C7.41203 12.9132 7.5 13.2032 7.5 13.4998C7.49957 13.8975 7.34139 14.2788 7.06018 14.56C6.77897 14.8412 6.39769 14.9994 6 14.9998Z" fill="#0061FF"/>
</svg>
