<svg width="32" height="32" viewBox="0 0 32 32" fill="none" xmlns="http://www.w3.org/2000/svg">
<path d="M16 22.4C17.6974 22.4 19.3253 21.7257 20.5255 20.5255C21.7257 19.3253 22.4 17.6974 22.4 16C22.4 14.3026 21.7257 12.6747 20.5255 11.4745C19.3253 10.2743 17.6974 9.6 16 9.6C14.3026 9.6 12.6747 10.2743 11.4745 11.4745C10.2743 12.6747 9.6 14.3026 9.6 16C9.6 17.6974 10.2743 19.3253 11.4745 20.5255C12.6747 21.7257 14.3026 22.4 16 22.4ZM16 8C17.0506 8 18.0909 8.20693 19.0615 8.60896C20.0321 9.011 20.914 9.60028 21.6569 10.3431C22.3997 11.086 22.989 11.9679 23.391 12.9385C23.7931 13.9091 24 14.9494 24 16C24 18.1217 23.1571 20.1566 21.6569 21.6569C20.1566 23.1571 18.1217 24 16 24C11.576 24 8 20.4 8 16C8 13.8783 8.84285 11.8434 10.3431 10.3431C11.8434 8.84285 13.8783 8 16 8ZM16.4 12V16.2L20 18.336L19.4 19.32L15.2 16.8V12H16.4Z" fill="white"/>
</svg>
