<svg width="16" height="16" viewBox="0 0 16 16" fill="none" xmlns="http://www.w3.org/2000/svg">
<path d="M1.38654 11.5867C1.45419 11.7496 1.58364 11.879 1.74654 11.9467C1.82669 11.9808 1.91276 11.9989 1.99988 12H5.33321C5.51002 12 5.67959 11.9298 5.80462 11.8047C5.92964 11.6797 5.99988 11.5101 5.99988 11.3333C5.99988 11.1565 5.92964 10.987 5.80462 10.8619C5.67959 10.7369 5.51002 10.6667 5.33321 10.6667H3.60654L7.33321 6.94L9.52654 9.14C9.58852 9.20249 9.66225 9.25208 9.74349 9.28593C9.82473 9.31977 9.91187 9.3372 9.99988 9.3372C10.0879 9.3372 10.175 9.31977 10.2563 9.28593C10.3375 9.25208 10.4112 9.20249 10.4732 9.14L14.4732 5.14C14.5357 5.07802 14.5853 5.00429 14.6191 4.92305C14.653 4.84181 14.6704 4.75467 14.6704 4.66667C14.6704 4.57866 14.653 4.49152 14.6191 4.41028C14.5853 4.32904 14.5357 4.25531 14.4732 4.19333C14.4112 4.13085 14.3375 4.08125 14.2563 4.04741C14.175 4.01356 14.0879 3.99613 13.9999 3.99613C13.9119 3.99613 13.8247 4.01356 13.7435 4.04741C13.6623 4.08125 13.5885 4.13085 13.5265 4.19333L9.99988 7.72667L7.80654 5.52667C7.74457 5.46418 7.67084 5.41459 7.5896 5.38074C7.50836 5.34689 7.42122 5.32947 7.33321 5.32947C7.2452 5.32947 7.15807 5.34689 7.07683 5.38074C6.99559 5.41459 6.92185 5.46418 6.85988 5.52667L2.66654 9.72667V8C2.66654 7.82319 2.59631 7.65362 2.47128 7.5286C2.34626 7.40357 2.17669 7.33333 1.99988 7.33333C1.82307 7.33333 1.6535 7.40357 1.52847 7.5286C1.40345 7.65362 1.33321 7.82319 1.33321 8V11.3333C1.33426 11.4205 1.35238 11.5065 1.38654 11.5867Z" fill="#359766"/>
</svg>
