<svg width="20" height="20" viewBox="0 0 20 20" fill="none" xmlns="http://www.w3.org/2000/svg">
<path d="M9.54625 16.25V4.58624H7.97375V9.52499H2.1975V4.58749H0.625V16.25H2.1975V10.91H7.9725V16.25H9.54625ZM14.0775 10.91H15.35C16.7775 10.91 17.7687 11.7475 17.7863 13.0025C17.8025 14.2587 16.8113 15.1737 15.2738 15.165C13.9237 15.1562 12.9575 14.43 12.855 13.515H11.385C11.4712 15.1737 12.915 16.4975 15.2388 16.4975C17.6575 16.4975 19.4175 15.0537 19.375 13.0112C19.3412 11.1237 17.8113 10.3112 16.8288 10.2V10.115C17.7087 9.96124 19.0338 8.97749 18.9825 7.32874C18.9387 5.63749 17.5125 4.32874 15.29 4.34749C12.9488 4.35499 11.7188 5.79999 11.6675 7.29499H13.1625C13.24 6.43249 14.0512 5.67124 15.2825 5.67124C16.53 5.67124 17.4012 6.44874 17.4012 7.57749C17.41 8.72999 16.5037 9.56749 15.2825 9.56749H14.0775V10.91Z" fill="#979FA5"/>
</svg>
