<svg width="20" height="20" viewBox="0 0 20 20" fill="none" xmlns="http://www.w3.org/2000/svg">
<path d="M9.99935 15.834C10.1642 15.834 10.3253 15.7851 10.4623 15.6935C10.5994 15.602 10.7062 15.4718 10.7692 15.3196C10.8323 15.1673 10.8488 14.9997 10.8167 14.8381C10.7845 14.6764 10.7051 14.5279 10.5886 14.4114C10.4721 14.2948 10.3236 14.2155 10.1619 14.1833C10.0003 14.1512 9.83272 14.1677 9.68045 14.2308C9.52817 14.2938 9.39803 14.4006 9.30646 14.5377C9.21489 14.6747 9.16602 14.8358 9.16602 15.0006C9.16602 15.2217 9.25381 15.4336 9.41009 15.5899C9.56637 15.7462 9.77834 15.834 9.99935 15.834ZM14.166 15.834C14.3308 15.834 14.492 15.7851 14.629 15.6935C14.766 15.602 14.8728 15.4718 14.9359 15.3196C14.999 15.1673 15.0155 14.9997 14.9833 14.8381C14.9512 14.6764 14.8718 14.5279 14.7553 14.4114C14.6387 14.2948 14.4902 14.2155 14.3286 14.1833C14.1669 14.1512 13.9994 14.1677 13.8471 14.2308C13.6948 14.2938 13.5647 14.4006 13.4731 14.5377C13.3816 14.6747 13.3327 14.8358 13.3327 15.0006C13.3327 15.2217 13.4205 15.4336 13.5768 15.5899C13.733 15.7462 13.945 15.834 14.166 15.834ZM14.166 12.5007C14.3308 12.5007 14.492 12.4518 14.629 12.3602C14.766 12.2686 14.8728 12.1385 14.9359 11.9862C14.999 11.8339 15.0155 11.6664 14.9833 11.5047C14.9512 11.3431 14.8718 11.1946 14.7553 11.0781C14.6387 10.9615 14.4902 10.8821 14.3286 10.85C14.1669 10.8178 13.9994 10.8343 13.8471 10.8974C13.6948 10.9605 13.5647 11.0673 13.4731 11.2043C13.3816 11.3414 13.3327 11.5025 13.3327 11.6673C13.3327 11.8883 13.4205 12.1003 13.5768 12.2566C13.733 12.4129 13.945 12.5007 14.166 12.5007ZM9.99935 12.5007C10.1642 12.5007 10.3253 12.4518 10.4623 12.3602C10.5994 12.2686 10.7062 12.1385 10.7692 11.9862C10.8323 11.8339 10.8488 11.6664 10.8167 11.5047C10.7845 11.3431 10.7051 11.1946 10.5886 11.0781C10.4721 10.9615 10.3236 10.8821 10.1619 10.85C10.0003 10.8178 9.83272 10.8343 9.68045 10.8974C9.52817 10.9605 9.39803 11.0673 9.30646 11.2043C9.21489 11.3414 9.16602 11.5025 9.16602 11.6673C9.16602 11.8883 9.25381 12.1003 9.41009 12.2566C9.56637 12.4129 9.77834 12.5007 9.99935 12.5007ZM15.8327 2.50065H14.9993V1.66732C14.9993 1.4463 14.9116 1.23434 14.7553 1.07806C14.599 0.921782 14.387 0.833984 14.166 0.833984C13.945 0.833984 13.733 0.921782 13.5768 1.07806C13.4205 1.23434 13.3327 1.4463 13.3327 1.66732V2.50065H6.66602V1.66732C6.66602 1.4463 6.57822 1.23434 6.42194 1.07806C6.26566 0.921782 6.0537 0.833984 5.83268 0.833984C5.61167 0.833984 5.39971 0.921782 5.24343 1.07806C5.08715 1.23434 4.99935 1.4463 4.99935 1.66732V2.50065H4.16602C3.50297 2.50065 2.86709 2.76404 2.39825 3.23288C1.92941 3.70172 1.66602 4.33761 1.66602 5.00065V16.6673C1.66602 17.3304 1.92941 17.9662 2.39825 18.4351C2.86709 18.9039 3.50297 19.1673 4.16602 19.1673H15.8327C16.4957 19.1673 17.1316 18.9039 17.6005 18.4351C18.0693 17.9662 18.3327 17.3304 18.3327 16.6673V5.00065C18.3327 4.33761 18.0693 3.70172 17.6005 3.23288C17.1316 2.76404 16.4957 2.50065 15.8327 2.50065ZM16.666 16.6673C16.666 16.8883 16.5782 17.1003 16.4219 17.2566C16.2657 17.4129 16.0537 17.5006 15.8327 17.5006H4.16602C3.945 17.5006 3.73304 17.4129 3.57676 17.2566C3.42048 17.1003 3.33268 16.8883 3.33268 16.6673V9.16732H16.666V16.6673ZM16.666 7.50065H3.33268V5.00065C3.33268 4.77964 3.42048 4.56768 3.57676 4.4114C3.73304 4.25511 3.945 4.16732 4.16602 4.16732H4.99935V5.00065C4.99935 5.22166 5.08715 5.43363 5.24343 5.58991C5.39971 5.74619 5.61167 5.83398 5.83268 5.83398C6.0537 5.83398 6.26566 5.74619 6.42194 5.58991C6.57822 5.43363 6.66602 5.22166 6.66602 5.00065V4.16732H13.3327V5.00065C13.3327 5.22166 13.4205 5.43363 13.5768 5.58991C13.733 5.74619 13.945 5.83398 14.166 5.83398C14.387 5.83398 14.599 5.74619 14.7553 5.58991C14.9116 5.43363 14.9993 5.22166 14.9993 5.00065V4.16732H15.8327C16.0537 4.16732 16.2657 4.25511 16.4219 4.4114C16.5782 4.56768 16.666 4.77964 16.666 5.00065V7.50065ZM5.83268 12.5007C5.9975 12.5007 6.15862 12.4518 6.29566 12.3602C6.4327 12.2686 6.53951 12.1385 6.60258 11.9862C6.66566 11.8339 6.68216 11.6664 6.65 11.5047C6.61785 11.3431 6.53848 11.1946 6.42194 11.0781C6.30539 10.9615 6.15691 10.8821 5.99526 10.85C5.83361 10.8178 5.66605 10.8343 5.51378 10.8974C5.36151 10.9605 5.23136 11.0673 5.13979 11.2043C5.04822 11.3414 4.99935 11.5025 4.99935 11.6673C4.99935 11.8883 5.08715 12.1003 5.24343 12.2566C5.39971 12.4129 5.61167 12.5007 5.83268 12.5007ZM5.83268 15.834C5.9975 15.834 6.15862 15.7851 6.29566 15.6935C6.4327 15.602 6.53951 15.4718 6.60258 15.3196C6.66566 15.1673 6.68216 14.9997 6.65 14.8381C6.61785 14.6764 6.53848 14.5279 6.42194 14.4114C6.30539 14.2948 6.15691 14.2155 5.99526 14.1833C5.83361 14.1512 5.66605 14.1677 5.51378 14.2308C5.36151 14.2938 5.23136 14.4006 5.13979 14.5377C5.04822 14.6747 4.99935 14.8358 4.99935 15.0006C4.99935 15.2217 5.08715 15.4336 5.24343 15.5899C5.39971 15.7462 5.61167 15.834 5.83268 15.834Z" fill="#424C5D"/>
</svg>
