<svg width="24" height="24" viewBox="0 0 24 24" fill="none" xmlns="http://www.w3.org/2000/svg">
<path d="M21.0543 12H19.0543C18.7891 12 18.5347 12.1054 18.3472 12.2929C18.1597 12.4804 18.0543 12.7348 18.0543 13C18.0543 13.2652 18.1597 13.5196 18.3472 13.7071C18.5347 13.8946 18.7891 14 19.0543 14V16H17.8701C17.9886 15.6798 18.0509 15.3415 18.0543 15C18.0544 14.3396 17.8366 13.6976 17.4346 13.1736C17.0325 12.6497 16.4688 12.273 15.8309 12.1021C15.193 11.9313 14.5165 11.9757 13.9064 12.2285C13.2963 12.4813 12.7867 12.9285 12.4567 13.5005C12.3904 13.6143 12.3472 13.74 12.3296 13.8705C12.3121 14.0011 12.3205 14.1338 12.3543 14.261C12.3882 14.3883 12.4469 14.5076 12.527 14.6121C12.6071 14.7166 12.707 14.8043 12.8211 14.8701C12.9352 14.9359 13.0612 14.9785 13.1917 14.9954C13.3223 15.0124 13.455 15.0034 13.5821 14.969C13.7092 14.9346 13.8283 14.8754 13.9324 14.7948C14.0366 14.7142 14.1238 14.6139 14.1891 14.4995C14.2769 14.3477 14.4031 14.2217 14.5549 14.1341C14.7068 14.0464 14.879 14.0002 15.0543 14C15.3195 14 15.5739 14.1054 15.7614 14.2929C15.949 14.4804 16.0543 14.7348 16.0543 15C16.0543 15.2652 15.949 15.5196 15.7614 15.7071C15.5739 15.8946 15.3195 16 15.0543 16C14.7891 16 14.5347 16.1054 14.3472 16.2929C14.1597 16.4804 14.0543 16.7348 14.0543 17C14.0543 17.2652 14.1597 17.5196 14.3472 17.7071C14.5347 17.8946 14.7891 18 15.0543 18C15.3195 18 15.5739 18.1054 15.7614 18.2929C15.949 18.4804 16.0543 18.7348 16.0543 19C16.0543 19.2652 15.949 19.5196 15.7614 19.7071C15.5739 19.8946 15.3195 20 15.0543 20C14.879 19.9998 14.7068 19.9536 14.5549 19.8659C14.4031 19.7783 14.2769 19.6522 14.1891 19.5005C14.1238 19.3861 14.0366 19.2858 13.9324 19.2052C13.8283 19.1246 13.7092 19.0654 13.5821 19.031C13.455 18.9966 13.3223 18.9876 13.1918 19.0045C13.0612 19.0215 12.9352 19.0641 12.8211 19.1299C12.7071 19.1957 12.6071 19.2834 12.527 19.3879C12.4469 19.4924 12.3882 19.6117 12.3544 19.739C12.3205 19.8662 12.3121 19.9989 12.3296 20.1294C12.3472 20.26 12.3904 20.3857 12.4567 20.4995C12.7867 21.0715 13.2963 21.5186 13.9064 21.7715C14.5165 22.0243 15.193 22.0687 15.8309 21.8978C16.4688 21.7269 17.0325 21.3503 17.4345 20.8264C17.8366 20.3024 18.0544 19.6604 18.0543 19C18.0509 18.6585 17.9886 18.3202 17.8701 18H19.0543V21C19.0543 21.2652 19.1597 21.5196 19.3472 21.7071C19.5347 21.8946 19.7891 22 20.0543 22C20.3195 22 20.5739 21.8946 20.7614 21.7071C20.949 21.5196 21.0543 21.2652 21.0543 21V14C21.3195 14 21.5739 13.8946 21.7614 13.7071C21.949 13.5196 22.0543 13.2652 22.0543 13C22.0543 12.7348 21.949 12.4804 21.7614 12.2929C21.5739 12.1054 21.3195 12 21.0543 12ZM9.0846 11.2427C9.14896 11.4999 9.31285 11.721 9.54022 11.8573C9.6528 11.9248 9.77758 11.9695 9.90743 11.9888C10.0373 12.0081 10.1697 12.0016 10.297 11.9697C10.4243 11.9379 10.5442 11.8812 10.6496 11.803C10.7551 11.7249 10.8441 11.6267 10.9116 11.5141C10.9791 11.4015 11.0238 11.2767 11.0431 11.1469C11.0624 11.017 11.0559 10.8847 11.024 10.7573L9.26721 3.72755C9.14389 3.23411 8.85917 2.79607 8.45829 2.48305C8.05742 2.17003 7.56341 2 7.05481 2C6.5462 2 6.05219 2.17003 5.65132 2.48305C5.25044 2.79607 4.96572 3.23411 4.84241 3.72755L3.0846 10.7573C3.02023 11.0145 3.06067 11.2867 3.19702 11.5141C3.33337 11.7415 3.55445 11.9054 3.81164 11.9697C4.06883 12.0341 4.34105 11.9937 4.56842 11.8573C4.79579 11.721 4.95968 11.4999 5.02405 11.2427L5.58484 9H8.52411L9.0846 11.2427ZM6.08496 7L6.78186 4.2129C6.80298 4.15763 6.84039 4.11008 6.88913 4.07654C6.93787 4.04299 6.99564 4.02503 7.05481 4.02503C7.11397 4.02503 7.17174 4.04299 7.22048 4.07654C7.26922 4.11008 7.30663 4.15763 7.32776 4.2129L8.02429 7H6.08496ZM14.0543 7H15.0543C15.3195 7.00027 15.5737 7.10571 15.7611 7.29319C15.9486 7.48067 16.0541 7.73487 16.0543 8V9C16.0543 9.26522 16.1597 9.51958 16.3472 9.70711C16.5347 9.89465 16.7891 10 17.0543 10C17.3195 10 17.5739 9.89465 17.7614 9.70711C17.949 9.51958 18.0543 9.26522 18.0543 9V8C18.0534 7.20462 17.7371 6.44206 17.1747 5.87964C16.6123 5.31722 15.8497 5.00087 15.0543 5.00001H14.0543C13.7891 5.00001 13.5347 5.10536 13.3472 5.2929C13.1597 5.48043 13.0543 5.73479 13.0543 6C13.0543 6.26522 13.1597 6.51958 13.3472 6.70711C13.5347 6.89465 13.7891 7 14.0543 7ZM10.0543 16H9.05432C8.78918 15.9997 8.53498 15.8943 8.3475 15.7068C8.16002 15.5193 8.05458 15.2651 8.05432 15V14C8.05432 13.7348 7.94896 13.4804 7.76142 13.2929C7.57389 13.1054 7.31953 13 7.05432 13C6.7891 13 6.53475 13.1054 6.34721 13.2929C6.15967 13.4804 6.05432 13.7348 6.05432 14V15C6.05518 15.7954 6.37153 16.5579 6.93395 17.1204C7.49638 17.6828 8.25893 17.9991 9.05432 18H10.0543C10.3195 18 10.5739 17.8946 10.7614 17.7071C10.949 17.5196 11.0543 17.2652 11.0543 17C11.0543 16.7348 10.949 16.4804 10.7614 16.2929C10.5739 16.1054 10.3195 16 10.0543 16Z" fill="#262B35"/>
</svg>
