<svg width="24" height="24" viewBox="0 0 24 24" fill="none" xmlns="http://www.w3.org/2000/svg">
<path d="M4 17C4 16.4477 4.44772 16 5 16H9C9.55228 16 10 16.4477 10 17V19C10 19.5523 9.55228 20 9 20H5C4.44772 20 4 19.5523 4 19V17ZM14 5C14 4.44772 14.4477 4 15 4H19C19.5523 4 20 4.44772 20 5V7C20 7.55228 19.5523 8 19 8H15C14.4477 8 14 7.55228 14 7V5ZM4 5C4 4.44772 4.44772 4 5 4H9C9.55228 4 10 4.44772 10 5V11C10 11.5523 9.55228 12 9 12H5C4.44772 12 4 11.5523 4 11V5ZM14 13C14 12.4477 14.4477 12 15 12H19C19.5523 12 20 12.4477 20 13V19C20 19.5523 19.5523 20 19 20H15C14.4477 20 14 19.5523 14 19V13Z" stroke="#0061FF" stroke-width="2" stroke-linecap="round" stroke-linejoin="round"/>
</svg>
