<svg width="32" height="32" viewBox="0 0 32 32" fill="none" xmlns="http://www.w3.org/2000/svg">
<path d="M16.0004 19.2C16.4247 19.2 16.8317 19.3686 17.1318 19.6686C17.4318 19.9687 17.6004 20.3757 17.6004 20.8C17.6004 21.2243 17.4318 21.6313 17.1318 21.9314C16.8317 22.2314 16.4247 22.4 16.0004 22.4C15.576 22.4 15.1691 22.2314 14.869 21.9314C14.569 21.6313 14.4004 21.2243 14.4004 20.8C14.4004 20.3757 14.569 19.9687 14.869 19.6686C15.1691 19.3686 15.576 19.2 16.0004 19.2ZM16.0004 14.4C16.4247 14.4 16.8317 14.5686 17.1318 14.8686C17.4318 15.1687 17.6004 15.5757 17.6004 16C17.6004 16.4243 17.4318 16.8313 17.1318 17.1314C16.8317 17.4314 16.4247 17.6 16.0004 17.6C15.576 17.6 15.1691 17.4314 14.869 17.1314C14.569 16.8313 14.4004 16.4243 14.4004 16C14.4004 15.5757 14.569 15.1687 14.869 14.8686C15.1691 14.5686 15.576 14.4 16.0004 14.4ZM16.0004 9.6C16.4247 9.6 16.8317 9.76857 17.1318 10.0686C17.4318 10.3687 17.6004 10.7757 17.6004 11.2C17.6004 11.6243 17.4318 12.0313 17.1318 12.3314C16.8317 12.6314 16.4247 12.8 16.0004 12.8C15.576 12.8 15.1691 12.6314 14.869 12.3314C14.569 12.0313 14.4004 11.6243 14.4004 11.2C14.4004 10.7757 14.569 10.3687 14.869 10.0686C15.1691 9.76857 15.576 9.6 16.0004 9.6Z" fill="white"/>
</svg>
