<svg width="188" height="36" viewBox="0 0 188 36" fill="none" xmlns="http://www.w3.org/2000/svg">
<path d="M10 24H26C26.55 24 27 23.55 27 23C27 22.45 26.55 22 26 22H10C9.45 22 9 22.45 9 23C9 23.55 9.45 24 10 24ZM10 19H26C26.55 19 27 18.55 27 18C27 17.45 26.55 17 26 17H10C9.45 17 9 17.45 9 18C9 18.55 9.45 19 10 19ZM9 13C9 13.55 9.45 14 10 14H26C26.55 14 27 13.55 27 13C27 12.45 26.55 12 26 12H10C9.45 12 9 12.45 9 13Z" fill="#75839D"/>
<path d="M105.597 12.9108C108.495 12.9108 110.852 15.1935 110.852 18C110.852 20.8065 108.495 23.0892 105.597 23.0892H101.993V12.9108H105.597ZM105.597 9.99725H100.638C99.7346 9.99725 98.9844 10.7219 98.9844 11.5986V24.4033C98.9844 25.2781 99.7326 26.0046 100.638 26.0046H105.597C110.167 26.0046 113.86 22.4284 113.86 18.0019C113.86 13.5753 110.167 9.99725 105.597 9.99725Z" fill="black"/>
<path d="M128.368 24.5498C128.368 25.3458 127.688 26.0047 126.866 26.0047C126.044 26.0047 125.364 25.3458 125.364 24.5498V20.1852C125.364 18.5708 124.026 17.2755 122.359 17.2755C120.692 17.2755 119.354 18.5708 119.354 20.1852V24.5498C119.354 25.3458 118.674 26.0047 117.852 26.0047C117.03 26.0047 116.35 25.3458 116.35 24.5498V11.4541C116.35 10.6581 117.03 9.99921 117.852 9.99921C118.674 9.99921 119.354 10.6581 119.354 11.4541V15.1598C120.223 14.6604 121.256 14.3638 122.359 14.3638C125.668 14.3638 128.368 16.9788 128.368 20.1833V24.5498Z" fill="black"/>
<path d="M134.284 24.5498C134.284 25.3458 133.604 26.0047 132.782 26.0047C131.96 26.0047 131.279 25.3458 131.279 24.5498V15.8206C131.279 15.0246 131.96 14.3657 132.782 14.3657C133.604 14.3657 134.284 15.0246 134.284 15.8206V24.5498Z" fill="black"/>
<path d="M154.098 24.5499C154.098 25.3458 153.417 26.0048 152.596 26.0048C152.196 26.0048 151.82 25.8452 151.539 25.573L145.834 20.0482L140.131 25.573C139.85 25.8452 139.474 26.0048 139.075 26.0048C138.253 26.0048 137.572 25.3458 137.572 24.5499V11.4541C137.572 10.6582 138.253 9.99927 139.075 9.99927C139.897 9.99927 140.577 10.6582 140.577 11.4541V21.0488L144.78 16.9789C145.061 16.6842 145.46 16.5471 145.836 16.5471C146.212 16.5471 146.611 16.6842 146.892 16.9789L151.095 21.0488V11.4541C151.095 10.6582 151.776 9.99927 152.597 9.99927C153.419 9.99927 154.1 10.6582 154.1 11.4541V24.5499H154.098Z" fill="black"/>
<path d="M160.391 24.5498C160.391 25.3458 159.711 26.0047 158.889 26.0047C158.067 26.0047 157.387 25.3458 157.387 24.5498V15.8206C157.387 15.0246 158.067 14.3657 158.889 14.3657C159.711 14.3657 160.391 15.0246 160.391 15.8206V24.5498Z" fill="black"/>
<path d="M170.062 23.0949C170.485 23.0949 170.812 22.7777 170.812 22.3666C170.812 21.9554 170.485 21.6382 170.062 21.6382H167.058C164.991 21.6382 163.301 20.0012 163.301 18.0001C163.301 15.9989 164.991 14.3619 167.058 14.3619H171.565C172.386 14.3619 173.067 15.0209 173.067 15.8168C173.067 16.6128 172.386 17.2717 171.565 17.2717H167.058C166.635 17.2717 166.305 17.5889 166.305 18.0001C166.305 18.4112 166.633 18.7284 167.058 18.7284H170.062C172.129 18.7284 173.817 20.3654 173.817 22.3666C173.817 24.3677 172.127 26.0047 170.062 26.0047H164.803C163.981 26.0047 163.301 25.3458 163.301 24.5498C163.301 23.7539 163.981 23.0949 164.803 23.0949H170.062Z" fill="black"/>
<path d="M181.988 26.0047C178.677 26.0047 175.979 23.3897 175.979 20.1852C175.979 16.9807 178.677 14.3657 181.988 14.3657C185.297 14.3657 187.997 16.9807 187.997 20.1852C187.997 20.9812 187.317 21.6401 186.495 21.6401H179.381C179.898 22.5262 180.86 23.095 181.986 23.095H183.488C184.31 23.095 184.991 23.7539 184.991 24.5498C184.991 25.3458 184.31 26.0047 183.488 26.0047H181.988ZM179.381 18.7285H184.591C184.076 17.8649 183.089 17.2736 181.986 17.2736C180.86 17.2736 179.898 17.8649 179.381 18.7285Z" fill="black"/>
<path d="M132.784 13.2732C133.718 13.2732 134.474 12.5403 134.474 11.6362C134.474 10.7322 133.718 9.99927 132.784 9.99927C131.851 9.99927 131.094 10.7322 131.094 11.6362C131.094 12.5403 131.851 13.2732 132.784 13.2732Z" fill="url(#paint0_linear_1513_8316)"/>
<path d="M158.888 13.2732C159.821 13.2732 160.578 12.5403 160.578 11.6362C160.578 10.7322 159.821 9.99927 158.888 9.99927C157.954 9.99927 157.197 10.7322 157.197 11.6362C157.197 12.5403 157.954 13.2732 158.888 13.2732Z" fill="url(#paint1_linear_1513_8316)"/>
<path d="M86.7219 5H69.7233C68.7715 5 68 5.74715 68 6.66888V24.8557C68 25.5316 68.4207 26.1398 69.0642 26.397C69.7059 26.6542 70.4483 26.5115 70.9426 26.0347L79.2413 17.9981C79.9139 17.3467 79.9139 16.2898 79.2413 15.6384C78.5686 14.987 77.4772 14.987 76.8046 15.6384L71.4466 20.8271V8.33776H86.7238C89.3039 8.33776 91.4014 10.3708 91.4014 12.8676V23.1305C91.4014 25.6292 89.302 27.6604 86.7238 27.6604H78.5046L83.8626 22.4716C84.5353 21.8202 84.5353 20.7633 83.8626 20.1119C83.19 19.4605 82.0986 19.4605 81.4259 20.1119L73.1254 28.1503C72.633 28.6271 72.4857 29.3461 72.7512 29.9694C73.0187 30.5926 73.6468 31 74.3427 31H86.7199C91.1998 31 94.8441 27.4708 94.8441 23.1324V12.8695C94.848 8.53112 91.2036 5 86.7219 5Z" fill="url(#paint2_linear_1513_8316)"/>
<path d="M86.6493 19.0832C87.6011 19.0832 88.3727 18.3361 88.3727 17.4143V12.939C88.3727 12.0172 87.6011 11.2701 86.6493 11.2701H82.028C81.0762 11.2701 80.3047 12.0172 80.3047 12.939C80.3047 13.8607 81.0762 14.6078 82.028 14.6078H84.926V17.4143C84.926 18.3361 85.6975 19.0832 86.6493 19.0832Z" fill="url(#paint3_linear_1513_8316)"/>
<defs>
<linearGradient id="paint0_linear_1513_8316" x1="131.094" y1="11.6356" x2="134.474" y2="11.6356" gradientUnits="userSpaceOnUse">
<stop stop-color="#0068FF"/>
<stop offset="1" stop-color="#0000E1"/>
</linearGradient>
<linearGradient id="paint1_linear_1513_8316" x1="157.198" y1="11.6356" x2="160.578" y2="11.6356" gradientUnits="userSpaceOnUse">
<stop stop-color="#FF9852"/>
<stop offset="0.2774" stop-color="#FF8A3A"/>
<stop offset="1" stop-color="#FF6700"/>
</linearGradient>
<linearGradient id="paint2_linear_1513_8316" x1="84.8148" y1="12.8987" x2="70.8467" y2="27.3224" gradientUnits="userSpaceOnUse">
<stop stop-color="#0068FF"/>
<stop offset="1" stop-color="#0000E1"/>
</linearGradient>
<linearGradient id="paint3_linear_1513_8316" x1="88.2189" y1="11.4197" x2="83.1229" y2="16.6819" gradientUnits="userSpaceOnUse">
<stop stop-color="#FF9852"/>
<stop offset="0.2774" stop-color="#FF8A3A"/>
<stop offset="1" stop-color="#FF6700"/>
</linearGradient>
</defs>
</svg>
