<svg width="16" height="16" viewBox="0 0 16 16" fill="none" xmlns="http://www.w3.org/2000/svg">
<path d="M12.6665 7.33329H8.6665V3.33329C8.6665 2.93329 8.39984 2.66663 7.99984 2.66663C7.59984 2.66663 7.33317 2.93329 7.33317 3.33329V7.33329H3.33317C2.93317 7.33329 2.6665 7.59996 2.6665 7.99996C2.6665 8.39996 2.93317 8.66663 3.33317 8.66663H7.33317V12.6666C7.33317 13.0666 7.59984 13.3333 7.99984 13.3333C8.39984 13.3333 8.6665 13.0666 8.6665 12.6666V8.66663H12.6665C13.0665 8.66663 13.3332 8.39996 13.3332 7.99996C13.3332 7.59996 13.0665 7.33329 12.6665 7.33329Z" fill="white"/>
</svg>
