<svg width="24" height="24" viewBox="0 0 24 24" fill="none" xmlns="http://www.w3.org/2000/svg">
<path d="M10.0765 13.4436L10.4304 13.7975L10.784 13.4431L15.0725 9.1446C15.0727 9.1444 15.0729 9.14419 15.0731 9.14398C15.1668 9.05125 15.2932 8.99921 15.425 8.99921C15.5571 8.99921 15.6838 9.05148 15.7775 9.1446L15.7779 9.145C15.8248 9.19148 15.862 9.24679 15.8874 9.30771C15.9127 9.36864 15.9258 9.43399 15.9258 9.5C15.9258 9.56601 15.9127 9.63136 15.8874 9.69229C15.862 9.75321 15.8248 9.80852 15.7779 9.855L15.7765 9.85645L10.7779 14.855C10.7777 14.8552 10.7775 14.8554 10.7772 14.8557C10.6842 14.9476 10.5588 14.9995 10.4279 15L10.4271 15C10.3613 15.0004 10.2961 14.9878 10.2352 14.9629C10.1746 14.9382 10.1195 14.9018 10.073 14.8559C10.0727 14.8556 10.0724 14.8553 10.0721 14.855L7.72431 12.4972L7.71031 12.4831L7.69523 12.4702C7.64289 12.4254 7.60038 12.3702 7.57037 12.3082C7.54036 12.2462 7.52349 12.1786 7.52083 12.1098C7.51817 12.0409 7.52978 11.9722 7.55491 11.9081C7.58005 11.8439 7.61818 11.7856 7.66691 11.7369C7.71563 11.6882 7.77391 11.65 7.83807 11.6249C7.90223 11.5998 7.9709 11.5882 8.03976 11.5908C8.10862 11.5935 8.17619 11.6104 8.23822 11.6404C8.30025 11.6704 8.35541 11.7129 8.40023 11.7652L8.41279 11.7799L8.42645 11.7936L10.0765 13.4436ZM6.72209 4.10104C8.28435 3.05717 10.1211 2.5 12 2.5C13.2476 2.5 14.4829 2.74572 15.6355 3.22314C16.7881 3.70056 17.8354 4.40033 18.7175 5.28249C19.5997 6.16464 20.2994 7.21191 20.7769 8.36451C21.2543 9.5171 21.5 10.7524 21.5 12C21.5 13.8789 20.9428 15.7157 19.899 17.2779C18.8551 18.8402 17.3714 20.0578 15.6355 20.7769C13.8996 21.4959 11.9895 21.684 10.1466 21.3175C8.30383 20.9509 6.61109 20.0461 5.28249 18.7175C3.95389 17.3889 3.0491 15.6962 2.68254 13.8534C2.31598 12.0105 2.50412 10.1004 3.22315 8.36451C3.94218 6.62861 5.15982 5.14491 6.72209 4.10104ZM7.27766 19.0675C8.67548 20.0015 10.3189 20.5 12 20.5C14.2543 20.5 16.4164 19.6045 18.0104 18.0104C19.6045 16.4163 20.5 14.2543 20.5 12C20.5 10.3189 20.0015 8.67547 19.0675 7.27765C18.1335 5.87984 16.806 4.79037 15.2528 4.14702C13.6996 3.50368 11.9906 3.33535 10.3417 3.66333C8.6929 3.9913 7.17834 4.80085 5.9896 5.98959C4.80085 7.17834 3.9913 8.69289 3.66333 10.3417C3.33536 11.9906 3.50368 13.6996 4.14703 15.2528C4.79037 16.806 5.87984 18.1335 7.27766 19.0675Z" stroke="#0061FF"/>
</svg>
