<svg width="20" height="20" viewBox="0 0 20 20" fill="none" xmlns="http://www.w3.org/2000/svg">
<path fill-rule="evenodd" clip-rule="evenodd" d="M6.25 14.375C6.25 14.2092 6.31585 14.0503 6.43306 13.9331C6.55027 13.8158 6.70924 13.75 6.875 13.75H18.125C18.2908 13.75 18.4497 13.8158 18.5669 13.9331C18.6842 14.0503 18.75 14.2092 18.75 14.375C18.75 14.5408 18.6842 14.6997 18.5669 14.8169C18.4497 14.9342 18.2908 15 18.125 15H6.875C6.70924 15 6.55027 14.9342 6.43306 14.8169C6.31585 14.6997 6.25 14.5408 6.25 14.375ZM6.25 9.375C6.25 9.20924 6.31585 9.05027 6.43306 8.93306C6.55027 8.81585 6.70924 8.75 6.875 8.75H18.125C18.2908 8.75 18.4497 8.81585 18.5669 8.93306C18.6842 9.05027 18.75 9.20924 18.75 9.375C18.75 9.54076 18.6842 9.69973 18.5669 9.81694C18.4497 9.93415 18.2908 10 18.125 10H6.875C6.70924 10 6.55027 9.93415 6.43306 9.81694C6.31585 9.69973 6.25 9.54076 6.25 9.375ZM6.25 4.375C6.25 4.20924 6.31585 4.05027 6.43306 3.93306C6.55027 3.81585 6.70924 3.75 6.875 3.75H18.125C18.2908 3.75 18.4497 3.81585 18.5669 3.93306C18.6842 4.05027 18.75 4.20924 18.75 4.375C18.75 4.54076 18.6842 4.69973 18.5669 4.81694C18.4497 4.93415 18.2908 5 18.125 5H6.875C6.70924 5 6.55027 4.93415 6.43306 4.81694C6.31585 4.69973 6.25 4.54076 6.25 4.375ZM2.5 5.625C2.83152 5.625 3.14946 5.4933 3.38388 5.25888C3.6183 5.02446 3.75 4.70652 3.75 4.375C3.75 4.04348 3.6183 3.72554 3.38388 3.49112C3.14946 3.2567 2.83152 3.125 2.5 3.125C2.16848 3.125 1.85054 3.2567 1.61612 3.49112C1.3817 3.72554 1.25 4.04348 1.25 4.375C1.25 4.70652 1.3817 5.02446 1.61612 5.25888C1.85054 5.4933 2.16848 5.625 2.5 5.625ZM2.5 10.625C2.83152 10.625 3.14946 10.4933 3.38388 10.2589C3.6183 10.0245 3.75 9.70652 3.75 9.375C3.75 9.04348 3.6183 8.72554 3.38388 8.49112C3.14946 8.2567 2.83152 8.125 2.5 8.125C2.16848 8.125 1.85054 8.2567 1.61612 8.49112C1.3817 8.72554 1.25 9.04348 1.25 9.375C1.25 9.70652 1.3817 10.0245 1.61612 10.2589C1.85054 10.4933 2.16848 10.625 2.5 10.625ZM2.5 15.625C2.83152 15.625 3.14946 15.4933 3.38388 15.2589C3.6183 15.0245 3.75 14.7065 3.75 14.375C3.75 14.0435 3.6183 13.7255 3.38388 13.4911C3.14946 13.2567 2.83152 13.125 2.5 13.125C2.16848 13.125 1.85054 13.2567 1.61612 13.4911C1.3817 13.7255 1.25 14.0435 1.25 14.375C1.25 14.7065 1.3817 15.0245 1.61612 15.2589C1.85054 15.4933 2.16848 15.625 2.5 15.625Z" fill="#979FA5"/>
</svg>
