<svg width="20" height="20" viewBox="0 0 20 20" fill="none" xmlns="http://www.w3.org/2000/svg">
<path d="M5.89376 8.1775L4.17876 9.8925C3.47544 10.5958 3.08032 11.5497 3.08032 12.5444C3.08032 13.539 3.47544 14.4929 4.17876 15.1962C4.88209 15.8996 5.83599 16.2947 6.83064 16.2947C7.82529 16.2947 8.77919 15.8996 9.48251 15.1962L11.7675 12.91C12.1916 12.4858 12.5078 11.9661 12.6895 11.3944C12.8712 10.8228 12.9131 10.2159 12.8117 9.62467C12.7103 9.03346 12.4686 8.47521 12.1068 7.99676C11.745 7.51831 11.2737 7.13362 10.7325 6.875L10 7.6075C9.92564 7.68199 9.86096 7.76557 9.80751 7.85625C10.2257 7.97646 10.6052 8.20372 10.9086 8.51557C11.212 8.82742 11.4288 9.21305 11.5375 9.63435C11.6462 10.0556 11.6431 10.498 11.5284 10.9177C11.4138 11.3375 11.1916 11.72 10.8838 12.0275L8.60002 14.3125C8.13091 14.7816 7.49467 15.0451 6.83126 15.0451C6.16786 15.0451 5.53162 14.7816 5.06252 14.3125C4.59341 13.8434 4.32987 13.2072 4.32987 12.5437C4.32987 11.8803 4.59341 11.2441 5.06252 10.775L6.05376 9.785C5.91391 9.26091 5.85988 8.71762 5.89376 8.17625V8.1775Z" fill="#979FA5"/>
<path d="M7.13996 8.70002L7.34871 8.49127C7.6584 8.18043 8.0448 7.95704 8.46871 7.84377C8.58199 7.41986 8.80537 7.03346 9.11621 6.72377L9.32496 6.51502C8.69617 6.47966 8.06858 6.60303 7.49996 6.87377C7.22496 7.44877 7.10496 8.07752 7.13996 8.69877V8.70002Z" fill="#979FA5"/>
<path d="M8.23244 5.84002C7.80832 6.26419 7.49214 6.78392 7.31045 7.35558C7.12876 7.92724 7.08685 8.53414 7.18824 9.12535C7.28963 9.71655 7.53136 10.2748 7.89315 10.7533C8.25494 11.2317 8.72622 11.6164 9.26744 11.875L10.2362 10.905C9.81237 10.7913 9.42594 10.5681 9.11573 10.2578C8.80552 9.94743 8.58246 9.5609 8.46895 9.13704C8.35545 8.71318 8.35551 8.26691 8.46912 7.84307C8.58273 7.41924 8.8059 7.03278 9.11619 6.72252L11.3999 4.43752C11.869 3.96841 12.5053 3.70488 13.1687 3.70488C13.8321 3.70488 14.4683 3.96841 14.9374 4.43752C15.4065 4.90662 15.6701 5.54286 15.6701 6.20627C15.6701 6.86968 15.4065 7.50591 14.9374 7.97502L13.9462 8.96501C14.0862 9.49002 14.1399 10.0338 14.1062 10.5738L15.8212 8.85877C16.5245 8.15544 16.9196 7.20154 16.9196 6.20689C16.9196 5.21224 16.5245 4.25834 15.8212 3.55502C15.1179 2.8517 14.164 2.45657 13.1693 2.45657C12.1747 2.45657 11.2208 2.8517 10.5174 3.55502L8.23244 5.84002Z" fill="#979FA5"/>
<path d="M12.5 11.875C12.7719 11.3067 12.8958 10.6789 12.86 10.05L12.6513 10.2587C12.3416 10.5696 11.9552 10.793 11.5313 10.9062C11.418 11.3301 11.1946 11.7165 10.8838 12.0262L10.675 12.235C11.3038 12.2703 11.9314 12.147 12.5 11.8762V11.875Z" fill="#979FA5"/>
</svg>
