<svg width="24" height="24" viewBox="0 0 24 24" fill="none" xmlns="http://www.w3.org/2000/svg">
<path d="M7.41892 15.5399C7.23267 15.7273 7.12813 15.9807 7.12813 16.2449C7.12813 16.5091 7.23267 16.7625 7.41892 16.9499C7.51189 17.0436 7.62249 17.118 7.74435 17.1688C7.8662 17.2196 7.99691 17.2457 8.12892 17.2457C8.26093 17.2457 8.39164 17.2196 8.5135 17.1688C8.63536 17.118 8.74596 17.0436 8.83892 16.9499C9.02517 16.7625 9.12971 16.5091 9.12971 16.2449C9.12971 15.9807 9.02517 15.7273 8.83892 15.5399C8.74596 15.4462 8.63536 15.3718 8.5135 15.321C8.39164 15.2702 8.26093 15.2441 8.12892 15.2441C7.99691 15.2441 7.8662 15.2702 7.74435 15.321C7.62249 15.3718 7.51189 15.4462 7.41892 15.5399ZM7.41892 7.04989C7.23267 7.23726 7.12813 7.49071 7.12813 7.75489C7.12813 8.01908 7.23267 8.27253 7.41892 8.45989C7.51189 8.55362 7.62249 8.62802 7.74435 8.67879C7.8662 8.72955 7.99691 8.75569 8.12892 8.75569C8.26093 8.75569 8.39164 8.72955 8.5135 8.67879C8.63536 8.62802 8.74596 8.55362 8.83892 8.45989C9.02517 8.27253 9.12971 8.01908 9.12971 7.75489C9.12971 7.49071 9.02517 7.23726 8.83892 7.04989C8.74596 6.95617 8.63536 6.88177 8.5135 6.831C8.39164 6.78023 8.26093 6.7541 8.12892 6.7541C7.99691 6.7541 7.8662 6.78023 7.74435 6.831C7.62249 6.88177 7.51189 6.95617 7.41892 7.04989ZM12.3689 17.0499C12.1711 17.0499 11.9778 17.1085 11.8134 17.2184C11.6489 17.3283 11.5207 17.4845 11.445 17.6672C11.3694 17.8499 11.3496 18.051 11.3881 18.245C11.4267 18.439 11.522 18.6171 11.6618 18.757C11.8017 18.8969 11.9798 18.9921 12.1738 19.0307C12.3678 19.0693 12.5689 19.0495 12.7516 18.9738C12.9343 18.8981 13.0905 18.7699 13.2004 18.6055C13.3103 18.441 13.3689 18.2477 13.3689 18.0499C13.3757 17.9144 13.3549 17.779 13.3076 17.6518C13.2604 17.5247 13.1879 17.4085 13.0943 17.3102C13.0008 17.212 12.8882 17.1339 12.7635 17.0805C12.6388 17.0272 12.5046 16.9997 12.3689 16.9999V17.0499ZM6.36892 11.0499C6.17114 11.0499 5.9778 11.1085 5.81335 11.2184C5.6489 11.3283 5.52073 11.4845 5.44504 11.6672C5.36935 11.8499 5.34955 12.051 5.38814 12.245C5.42672 12.439 5.52196 12.6171 5.66182 12.757C5.80167 12.8969 5.97985 12.9921 6.17383 13.0307C6.36781 13.0693 6.56888 13.0495 6.75161 12.9738C6.93433 12.8981 7.09051 12.7699 7.20039 12.6055C7.31027 12.441 7.36892 12.2477 7.36892 12.0499C7.3757 11.9144 7.35486 11.779 7.30765 11.6518C7.26044 11.5247 7.18785 11.4085 7.09431 11.3102C7.00077 11.212 6.88822 11.1339 6.76352 11.0805C6.63881 11.0272 6.50456 10.9997 6.36892 10.9999V11.0499ZM12.3689 5.04989C12.1711 5.04989 11.9778 5.10854 11.8134 5.21842C11.6489 5.32831 11.5207 5.48449 11.445 5.66721C11.3694 5.84994 11.3496 6.051 11.3881 6.24499C11.4267 6.43897 11.522 6.61715 11.6618 6.757C11.8017 6.89685 11.9798 6.99209 12.1738 7.03068C12.3678 7.06926 12.5689 7.04946 12.7516 6.97377C12.9343 6.89809 13.0905 6.76991 13.2004 6.60546C13.3103 6.44102 13.3689 6.24768 13.3689 6.04989C13.3757 5.91443 13.3549 5.779 13.3076 5.65184C13.2604 5.52468 13.1879 5.40846 13.0943 5.31024C13.0008 5.21202 12.8882 5.13385 12.7635 5.0805C12.6388 5.02715 12.5046 4.99972 12.3689 4.99989V5.04989ZM15.9089 7.09989C15.7685 7.23951 15.6726 7.41768 15.6336 7.61182C15.5945 7.80597 15.614 8.00734 15.6895 8.19041C15.765 8.37348 15.8932 8.53001 16.0577 8.64016C16.2223 8.7503 16.4159 8.8091 16.6139 8.8091C16.812 8.8091 17.0055 8.7503 17.1701 8.64016C17.3347 8.53001 17.4629 8.37348 17.5384 8.19041C17.6139 8.00734 17.6333 7.80597 17.5943 7.61182C17.5552 7.41768 17.4594 7.23951 17.3189 7.09989C17.1382 6.90685 16.8885 6.79321 16.6242 6.78384C16.36 6.77447 16.1028 6.87013 15.9089 7.04989V7.09989ZM22.2089 7.09989C21.2947 5.27219 19.8893 3.73531 18.1505 2.6616C16.4117 1.58788 14.4081 1.01978 12.3645 1.021C10.3209 1.02222 8.31804 1.59271 6.5805 2.66851C4.84297 3.7443 3.43947 5.28286 2.5274 7.11166C1.61533 8.94045 1.23074 10.9872 1.41677 13.0223C1.60279 15.0574 2.35207 17.0005 3.58059 18.6336C4.80911 20.2668 6.46828 21.5254 8.37206 22.2683C10.2758 23.0113 12.349 23.2092 14.3589 22.8399C14.8644 22.7448 15.3458 22.5499 15.775 22.2666C16.2043 21.9833 16.5728 21.6172 16.8589 21.1899C17.1673 20.7253 17.38 20.2039 17.4847 19.6562C17.5895 19.1086 17.5841 18.5455 17.4689 17.9999C17.406 17.6702 17.3725 17.3355 17.3689 16.9999C17.3733 16.0309 17.6592 15.084 18.1918 14.2744C18.7244 13.4648 19.4808 12.8275 20.3689 12.4399C20.8478 12.2255 21.2776 11.9152 21.6319 11.5282C21.9862 11.1413 22.2575 10.6858 22.4289 10.1899C22.6023 9.68318 22.6722 9.1468 22.6344 8.61258C22.5966 8.07835 22.4519 7.55715 22.2089 7.07989V7.09989ZM20.5089 9.53989C20.4236 9.77921 20.2911 9.99898 20.1194 10.1862C19.9476 10.3734 19.74 10.5243 19.5089 10.6299C18.2789 11.1805 17.234 12.0744 16.4996 13.2044C15.7652 14.3343 15.3726 15.6523 15.3689 16.9999C15.3704 17.47 15.4173 17.9388 15.5089 18.3999C15.57 18.6817 15.574 18.9729 15.5208 19.2562C15.4675 19.5396 15.3581 19.8095 15.1989 20.0499C15.0642 20.2603 14.887 20.4402 14.6786 20.578C14.4702 20.7157 14.2353 20.8084 13.9889 20.8499C13.4548 20.9503 12.9124 21.0005 12.3689 20.9999C11.1631 21.0005 9.96944 20.7587 8.85885 20.289C7.74826 19.8193 6.74338 19.1313 5.90388 18.2656C5.06439 17.4 4.4074 16.3745 3.97194 15.2501C3.53647 14.1256 3.33141 12.9251 3.36892 11.7199C3.44653 9.47269 4.35793 7.33485 5.92555 5.72286C7.49318 4.11086 9.60476 3.14018 11.8489 2.99989H12.3589C14.0347 3.00031 15.677 3.46858 17.101 4.35196C18.525 5.23534 19.6741 6.49874 20.4189 7.99989C20.6482 8.47488 20.6805 9.02118 20.5089 9.51989V9.53989ZM12.3689 10.9999C12.1711 10.9999 11.9778 11.0585 11.8134 11.1684C11.6489 11.2783 11.5207 11.4345 11.445 11.6172C11.3694 11.7999 11.3496 12.001 11.3881 12.195C11.4267 12.389 11.522 12.5671 11.6618 12.707C11.8017 12.8469 11.9798 12.9421 12.1738 12.9807C12.3678 13.0193 12.5689 12.9995 12.7516 12.9238C12.9343 12.8481 13.0905 12.7199 13.2004 12.5555C13.3103 12.391 13.3689 12.1977 13.3689 11.9999C13.3689 11.7347 13.2636 11.4803 13.076 11.2928C12.8885 11.1053 12.6341 10.9999 12.3689 10.9999Z" fill="#262B35"/>
</svg>
