<svg width="16" height="16" viewBox="0 0 16 16" fill="none" xmlns="http://www.w3.org/2000/svg">
<path d="M12.6668 3.66667H8.48016L8.26683 3C8.12853 2.60882 7.87199 2.27034 7.53276 2.03145C7.19353 1.79255 6.7884 1.66507 6.3735 1.66667H3.3335C2.80306 1.66667 2.29436 1.87739 1.91928 2.25246C1.54421 2.62753 1.3335 3.13624 1.3335 3.66667V12.3333C1.3335 12.8638 1.54421 13.3725 1.91928 13.7476C2.29436 14.1226 2.80306 14.3333 3.3335 14.3333H12.6668C13.1973 14.3333 13.706 14.1226 14.081 13.7476C14.4561 13.3725 14.6668 12.8638 14.6668 12.3333V5.66667C14.6668 5.13624 14.4561 4.62753 14.081 4.25246C13.706 3.87739 13.1973 3.66667 12.6668 3.66667ZM13.3335 12.3333C13.3335 12.5101 13.2633 12.6797 13.1382 12.8047C13.0132 12.9298 12.8436 13 12.6668 13H3.3335C3.15669 13 2.98712 12.9298 2.86209 12.8047C2.73707 12.6797 2.66683 12.5101 2.66683 12.3333V3.66667C2.66683 3.48986 2.73707 3.32029 2.86209 3.19527C2.98712 3.07024 3.15669 3 3.3335 3H6.3735C6.51326 2.99964 6.6496 3.04322 6.76325 3.12457C6.8769 3.20591 6.96211 3.32092 7.00683 3.45334L7.36683 4.54667C7.41155 4.67909 7.49676 4.79409 7.61041 4.87544C7.72406 4.95679 7.8604 5.00037 8.00016 5H12.6668C12.8436 5 13.0132 5.07024 13.1382 5.19527C13.2633 5.32029 13.3335 5.48986 13.3335 5.66667V12.3333Z" fill="#75839D"/>
</svg>
