<svg width="1010" height="76" viewBox="0 0 1010 76" fill="none" xmlns="http://www.w3.org/2000/svg">
<rect x="0.5" y="0.5" width="145" height="75" fill="#F8F9FA"/>
<rect x="1" y="2" width="4" height="72" fill="#F8F9FA"/>
<rect x="0.5" y="0.5" width="145" height="75" stroke="#EAECF0"/>
<rect x="144.5" y="0.5" width="145" height="75" fill="#F8F9FA"/>
<rect x="145" y="2" width="4" height="72" fill="#F8F9FA"/>
<rect x="144.5" y="0.5" width="145" height="75" stroke="#EAECF0"/>
<rect x="288.5" y="0.5" width="145" height="75" fill="#F8F9FA"/>
<rect x="289" y="2" width="4" height="72" fill="#F8F9FA"/>
<rect x="288.5" y="0.5" width="145" height="75" stroke="#EAECF0"/>
<rect x="432.5" y="0.5" width="145" height="75" fill="#F8F9FA"/>
<rect x="433" y="2" width="4" height="72" fill="#F8F9FA"/>
<rect x="432.5" y="0.5" width="145" height="75" stroke="#EAECF0"/>
<rect x="576.5" y="0.5" width="145" height="75" fill="#E0ECFF"/>
<rect x="577" y="2" width="4" height="72" fill="#E0ECFF"/>
<rect x="576.5" y="0.5" width="145" height="75" stroke="#EAECF0"/>
<rect x="720.5" y="0.5" width="145" height="75" fill="#F8F9FA"/>
<rect x="721" y="2" width="4" height="72" fill="#F8F9FA"/>
<rect x="720.5" y="0.5" width="145" height="75" stroke="#EAECF0"/>
<rect x="864.5" y="0.5" width="145" height="75" fill="#F8F9FA"/>
<rect x="865" y="2" width="4" height="72" fill="#F8F9FA"/>
<rect x="864.5" y="0.5" width="145" height="75" stroke="#EAECF0"/>
</svg>
